<svg version="1.1" xmlns="http://www.w3.org/2000/svg" xmlns:xlink="http://www.w3.org/1999/xlink" width="1252" height="828"><defs></defs><g><g transform="translate(-98,-114) scale(1,1)"><rect fill="#C0C0C0" stroke="none" x="743" y="671" width="498" height="116" opacity="0.2"></rect></g><g transform="translate(-98,-114) scale(1,1)"><rect fill="#ffffff" stroke="none" x="736" y="664" width="498" height="116"></rect></g><g transform="translate(-98,-114) scale(1,1)"><path fill="none" stroke="#000000" d="M 736 664 L 1234 664 L 1234 780 L 736 780 L 736 664 Z Z" stroke-miterlimit="10"></path></g><g transform="translate(-98,-114) scale(1,1)"><path fill="none" stroke="#000000" d="M 736 689 L 1234 689" stroke-miterlimit="10"></path></g><g transform="translate(-98,-114) scale(1,1)"><path fill="none" stroke="#000000" d="M 736 742 L 1234 742" stroke-miterlimit="10"></path></g><g transform="translate(-98,-114) scale(1,1)"><g><path fill="none" stroke="none"></path><text fill="#000000" stroke="none" font-family="Arial" font-size="13px" font-style="normal" font-weight="bold" text-decoration="none" x="969.5" y="683.5">Word</text></g></g><g transform="translate(-98,-114) scale(1,1)"><g><path fill="none" stroke="none"></path><text fill="#000000" stroke="none" font-family="Arial" font-size="13px" font-style="normal" font-weight="normal" text-decoration="none" x="741" y="706.5">-kanas: string</text></g></g><g transform="translate(-98,-114) scale(1,1)"><g><path fill="none" stroke="none"></path><text fill="#000000" stroke="none" font-family="Arial" font-size="13px" font-style="normal" font-weight="normal" text-decoration="none" x="741" y="721.5">-meanings: list of string</text></g></g><g transform="translate(-98,-114) scale(1,1)"><g><path fill="none" stroke="none"></path><text fill="#000000" stroke="none" font-family="Arial" font-size="13px" font-style="normal" font-weight="normal" text-decoration="none" x="741" y="736.5">-studiedTimes: int</text></g></g><g transform="translate(-98,-114) scale(1,1)"><g><path fill="none" stroke="none"></path><text fill="#000000" stroke="none" font-family="Arial" font-size="13px" font-style="normal" font-weight="normal" text-decoration="none" x="741" y="759.5">+Word(kanjis: list of Kanji, kanas: string, meanings: list of string, studiedTimes: int)</text></g></g><g transform="translate(-98,-114) scale(1,1)"><g><path fill="none" stroke="none"></path><text fill="#000000" stroke="none" font-family="Arial" font-size="13px" font-style="normal" font-weight="normal" text-decoration="none" x="741" y="774.5">+study(): void</text></g></g><g transform="translate(-98,-114) scale(1,1)"><rect fill="#C0C0C0" stroke="none" x="143" y="487" width="356" height="100" opacity="0.2"></rect></g><g transform="translate(-98,-114) scale(1,1)"><rect fill="#ffffff" stroke="none" x="136" y="480" width="356" height="100"></rect></g><g transform="translate(-98,-114) scale(1,1)"><path fill="none" stroke="#000000" d="M 136 480 L 492 480 L 492 580 L 136 580 L 136 480 Z Z" stroke-miterlimit="10"></path></g><g transform="translate(-98,-114) scale(1,1)"><path fill="none" stroke="#000000" d="M 136 505 L 492 505" stroke-miterlimit="10"></path></g><g transform="translate(-98,-114) scale(1,1)"><path fill="none" stroke="#000000" d="M 136 543 L 492 543" stroke-miterlimit="10"></path></g><g transform="translate(-98,-114) scale(1,1)"><g><path fill="none" stroke="none"></path><text fill="#000000" stroke="none" font-family="Arial" font-size="13px" font-style="normal" font-weight="bold" text-decoration="none" x="299.5" y="499.5">Kanji</text></g></g><g transform="translate(-98,-114) scale(1,1)"><g><path fill="none" stroke="none"></path><text fill="#000000" stroke="none" font-family="Arial" font-size="13px" font-style="normal" font-weight="normal" text-decoration="none" x="141" y="522.5">-meanings: list of string</text></g></g><g transform="translate(-98,-114) scale(1,1)"><g><path fill="none" stroke="none"></path><text fill="#000000" stroke="none" font-family="Arial" font-size="13px" font-style="normal" font-weight="normal" text-decoration="none" x="141" y="537.5">-strokes: int</text></g></g><g transform="translate(-98,-114) scale(1,1)"><g><path fill="none" stroke="none"></path><text fill="#000000" stroke="none" font-family="Arial" font-size="13px" font-style="normal" font-weight="normal" text-decoration="none" x="141" y="560.5">+Kanji(character: string, meanings: list of string, stokes: int)</text></g></g><g transform="translate(-98,-114) scale(1,1)"><rect fill="#C0C0C0" stroke="none" x="823" y="227" width="343" height="220" opacity="0.2"></rect></g><g transform="translate(-98,-114) scale(1,1)"><rect fill="#ffffff" stroke="none" x="816" y="220" width="343" height="220"></rect></g><g transform="translate(-98,-114) scale(1,1)"><path fill="none" stroke="#000000" d="M 816 220 L 1159 220 L 1159 440 L 816 440 L 816 220 Z Z" stroke-miterlimit="10"></path></g><g transform="translate(-98,-114) scale(1,1)"><path fill="none" stroke="#000000" d="M 816 245 L 1159 245" stroke-miterlimit="10"></path></g><g transform="translate(-98,-114) scale(1,1)"><path fill="none" stroke="#000000" d="M 816 268 L 1159 268" stroke-miterlimit="10"></path></g><g transform="translate(-98,-114) scale(1,1)"><g><path fill="none" stroke="none"></path><text fill="#000000" stroke="none" font-family="Arial" font-size="13px" font-style="normal" font-weight="bold" text-decoration="none" x="943.5" y="239.5">WordsManager</text></g></g><g transform="translate(-98,-114) scale(1,1)"><g><path fill="none" stroke="none"></path><text fill="#000000" stroke="none" font-family="Arial" font-size="13px" font-style="normal" font-weight="normal" text-decoration="none" x="821" y="262.5">-database: sqlite3.Connection</text></g></g><g transform="translate(-98,-114) scale(1,1)"><g><path fill="none" stroke="none"></path><text fill="#000000" stroke="none" font-family="Arial" font-size="13px" font-style="normal" font-weight="normal" text-decoration="none" x="821" y="285.5">+loadWords(): void</text></g></g><g transform="translate(-98,-114) scale(1,1)"><g><path fill="none" stroke="none"></path><text fill="#000000" stroke="none" font-family="Arial" font-size="13px" font-style="normal" font-weight="normal" text-decoration="none" x="821" y="300.5">+addWordToTable(word : Word): void</text></g></g><g transform="translate(-98,-114) scale(1,1)"><g><path fill="none" stroke="none"></path><text fill="#000000" stroke="none" font-family="Arial" font-size="13px" font-style="normal" font-weight="normal" text-decoration="none" x="821" y="315.5">+updateWordInTable(word : Word): void</text></g></g><g transform="translate(-98,-114) scale(1,1)"><g><path fill="none" stroke="none"></path><text fill="#000000" stroke="none" font-family="Arial" font-size="13px" font-style="normal" font-weight="normal" text-decoration="none" x="821" y="330.5">+removeWordFromTable(word : Word): void</text></g></g><g transform="translate(-98,-114) scale(1,1)"><g><path fill="none" stroke="none"></path><text fill="#000000" stroke="none" font-family="Arial" font-size="13px" font-style="normal" font-weight="normal" text-decoration="none" x="821" y="345.5">+searchByKanjis(kanjis: list of Kanji): list of Word</text></g></g><g transform="translate(-98,-114) scale(1,1)"><g><path fill="none" stroke="none"></path><text fill="#000000" stroke="none" font-family="Arial" font-size="13px" font-style="normal" font-weight="normal" text-decoration="none" x="821" y="360.5">+searchByWriting(writing: string): list of Word</text></g></g><g transform="translate(-98,-114) scale(1,1)"><g><path fill="none" stroke="none"></path><text fill="#000000" stroke="none" font-family="Arial" font-size="13px" font-style="normal" font-weight="normal" text-decoration="none" x="821" y="375.5">+searchByMeanings(meanings: list of string): list of Word</text></g></g><g transform="translate(-98,-114) scale(1,1)"><g><path fill="none" stroke="none"></path><text fill="#000000" stroke="none" font-family="Arial" font-size="13px" font-style="normal" font-weight="normal" text-decoration="none" x="821" y="390.5">+searchByKanas(kanas: string): lis of Word</text></g></g><g transform="translate(-98,-114) scale(1,1)"><g><path fill="none" stroke="none"></path><text fill="#000000" stroke="none" font-family="Arial" font-size="13px" font-style="normal" font-weight="normal" text-decoration="none" x="821" y="405.5">+isInDatabase(word: Word): boolean</text></g></g><g transform="translate(-98,-114) scale(1,1)"><g><path fill="none" stroke="none"></path><text fill="#000000" stroke="none" font-family="Arial" font-size="13px" font-style="normal" font-weight="normal" text-decoration="none" x="821" y="420.5">+bindKanjisManager(kanjisManager: KanjisManager): void</text></g></g><g transform="translate(-98,-114) scale(1,1)"><g><path fill="none" stroke="none"></path><text fill="#000000" stroke="none" font-family="Arial" font-size="13px" font-style="normal" font-weight="normal" text-decoration="none" x="821" y="435.5">+constructWord(idWord: int): Word</text></g></g><g transform="translate(-98,-114) scale(1,1)"><rect fill="#C0C0C0" stroke="none" x="151" y="271" width="339" height="130" opacity="0.2"></rect></g><g transform="translate(-98,-114) scale(1,1)"><rect fill="#ffffff" stroke="none" x="144" y="264" width="339" height="130"></rect></g><g transform="translate(-98,-114) scale(1,1)"><path fill="none" stroke="#000000" d="M 144 264 L 483 264 L 483 394 L 144 394 L 144 264 Z Z" stroke-miterlimit="10"></path></g><g transform="translate(-98,-114) scale(1,1)"><path fill="none" stroke="#000000" d="M 144 289 L 483 289" stroke-miterlimit="10"></path></g><g transform="translate(-98,-114) scale(1,1)"><path fill="none" stroke="#000000" d="M 144 312 L 483 312" stroke-miterlimit="10"></path></g><g transform="translate(-98,-114) scale(1,1)"><g><path fill="none" stroke="none"></path><text fill="#000000" stroke="none" font-family="Arial" font-size="13px" font-style="normal" font-weight="bold" text-decoration="none" x="270.5" y="283.5">KanjisManager</text></g></g><g transform="translate(-98,-114) scale(1,1)"><g><path fill="none" stroke="none"></path><text fill="#000000" stroke="none" font-family="Arial" font-size="13px" font-style="normal" font-weight="normal" text-decoration="none" x="149" y="306.5">-database: sqlite3.Connection</text></g></g><g transform="translate(-98,-114) scale(1,1)"><g><path fill="none" stroke="none"></path><text fill="#000000" stroke="none" font-family="Arial" font-size="13px" font-style="normal" font-weight="normal" text-decoration="none" x="149" y="329.5">+loadKanjis(): void</text></g></g><g transform="translate(-98,-114) scale(1,1)"><g><path fill="none" stroke="none"></path><text fill="#000000" stroke="none" font-family="Arial" font-size="13px" font-style="normal" font-weight="normal" text-decoration="none" x="149" y="344.5">+addToTable(kanji: Kanji): void</text></g></g><g transform="translate(-98,-114) scale(1,1)"><g><path fill="none" stroke="none"></path><text fill="#000000" stroke="none" font-family="Arial" font-size="13px" font-style="normal" font-weight="normal" text-decoration="none" x="149" y="359.5">+removeFromTable(kanji: Kanji): void</text></g></g><g transform="translate(-98,-114) scale(1,1)"><g><path fill="none" stroke="none"></path><text fill="#000000" stroke="none" font-family="Arial" font-size="13px" font-style="normal" font-weight="normal" text-decoration="none" x="149" y="374.5">+searchByCharacter(character: string): Kanji</text></g></g><g transform="translate(-98,-114) scale(1,1)"><g><path fill="none" stroke="none"></path><text fill="#000000" stroke="none" font-family="Arial" font-size="13px" font-style="normal" font-weight="normal" text-decoration="none" x="149" y="389.5">+searchByMeanings(meanings: list of string): list of Kanji</text></g></g><g transform="translate(-98,-114) scale(1,1)"><path fill="none" stroke="#000000" d="M 990 440 L 990 664" stroke-miterlimit="10"></path></g><g transform="translate(-98,-114) scale(1,1)"><path fill="none" stroke="#000000" d="M 985.790482243984 653.8373251423759 L 990 664 L 994.209517756016 653.8373251423759" stroke-miterlimit="10"></path></g><g transform="translate(-98,-114) scale(1,1)"><g><path fill="none" stroke="none"></path><text fill="#000000" stroke="none" font-family="Arial" font-size="13px" font-style="normal" font-weight="normal" text-decoration="none" x="1003" y="653">-words</text></g></g><g transform="translate(-98,-114) scale(1,1)"><g><path fill="none" stroke="none"></path><text fill="#000000" stroke="none" font-family="Arial" font-size="13px" font-style="normal" font-weight="normal" text-decoration="none" x="955" y="658">0..*</text></g></g><g transform="translate(-98,-114) scale(1,1)"><path fill="none" stroke="#000000" d="M 313 394 L 313 480" stroke-miterlimit="10"></path></g><g transform="translate(-98,-114) scale(1,1)"><path fill="none" stroke="#000000" d="M 308.790482243984 469.83732514237585 L 313 480 L 317.209517756016 469.83732514237585" stroke-miterlimit="10"></path></g><g transform="translate(-98,-114) scale(1,1)"><g><path fill="none" stroke="none"></path><text fill="#000000" stroke="none" font-family="Arial" font-size="13px" font-style="normal" font-weight="normal" text-decoration="none" x="323" y="466">-kanjis</text></g></g><g transform="translate(-98,-114) scale(1,1)"><g><path fill="none" stroke="none"></path><text fill="#000000" stroke="none" font-family="Arial" font-size="13px" font-style="normal" font-weight="normal" text-decoration="none" x="279" y="468">0..*</text></g></g><g transform="translate(-98,-114) scale(1,1)"><path fill="#ffffff" stroke="none" d="M 1148 836 L 1329 836 L 1339 846 L 1339 931 L 1148 931 L 1148 836"></path></g><g transform="translate(-98,-114) scale(1,1)"><path fill="none" stroke="#000000" d="M 1148 836 L 1329 836 L 1339 846 L 1339 931 L 1148 931 L 1148 836 L 1148 836" stroke-miterlimit="10"></path></g><g transform="translate(-98,-114) scale(1,1)"><path fill="none" stroke="#000000" d="M 1329 836 L 1329 846 L 1339 846 L 1329 836" stroke-miterlimit="10"></path></g><g transform="translate(-98,-114) scale(1,1)"><g><path fill="none" stroke="none"></path><text fill="#000000" stroke="none" font-family="Arial" font-size="13px" font-style="normal" font-weight="normal" text-decoration="none" x="1153" y="854">Project JPBD</text></g></g><g transform="translate(-98,-114) scale(1,1)"><g><path fill="none" stroke="none"></path><text fill="#000000" stroke="none" font-family="Arial" font-size="13px" font-style="normal" font-weight="normal" text-decoration="none" x="1153" y="869">Author : Armand FOUCAULT</text></g></g><g transform="translate(-98,-114) scale(1,1)"><g><path fill="none" stroke="none"></path><text fill="#000000" stroke="none" font-family="Arial" font-size="13px" font-style="normal" font-weight="normal" text-decoration="none" x="1153" y="884">Diagram version 2.0</text></g></g><g transform="translate(-98,-114) scale(1,1)"><g><path fill="none" stroke="none"></path><text fill="#000000" stroke="none" font-family="Arial" font-size="13px" font-style="normal" font-weight="normal" text-decoration="none" x="1153" y="899">June 10, 2015</text></g></g><g transform="translate(-98,-114) scale(1,1)"><rect fill="#C0C0C0" stroke="none" x="247" y="691" width="146" height="70" opacity="0.2"></rect></g><g transform="translate(-98,-114) scale(1,1)"><rect fill="#ffffff" stroke="none" x="240" y="684" width="146" height="70"></rect></g><g transform="translate(-98,-114) scale(1,1)"><path fill="none" stroke="#000000" d="M 240 684 L 386 684 L 386 754 L 240 754 L 240 684 Z Z" stroke-miterlimit="10"></path></g><g transform="translate(-98,-114) scale(1,1)"><path fill="none" stroke="#000000" d="M 240 709 L 386 709" stroke-miterlimit="10"></path></g><g transform="translate(-98,-114) scale(1,1)"><path fill="none" stroke="#000000" d="M 240 732 L 386 732" stroke-miterlimit="10"></path></g><g transform="translate(-98,-114) scale(1,1)"><g><path fill="none" stroke="none"></path><text fill="#000000" stroke="none" font-family="Arial" font-size="13px" font-style="normal" font-weight="bold" text-decoration="none" x="285" y="703.5">Character</text></g></g><g transform="translate(-98,-114) scale(1,1)"><g><path fill="none" stroke="none"></path><text fill="#000000" stroke="none" font-family="Arial" font-size="13px" font-style="normal" font-weight="normal" text-decoration="none" x="245" y="726.5">-char: string</text></g></g><g transform="translate(-98,-114) scale(1,1)"><g><path fill="none" stroke="none"></path><text fill="#000000" stroke="none" font-family="Arial" font-size="13px" font-style="normal" font-weight="normal" text-decoration="none" x="245" y="749.5">+Character(char: string)</text></g></g><g transform="translate(-98,-114) scale(1,1)"><path fill="none" stroke="#000000" d="M 314 580 L 314 684" stroke-miterlimit="10"></path></g><g transform="translate(-98,-114) scale(1,1)"><path fill="#FFFFFF" stroke="none" d="M 305.580964487968 663.6746502847517 L 314 684 L 322.419035512032 663.6746502847517"></path></g><g transform="translate(-98,-114) scale(1,1)"><path fill="none" stroke="#000000" d="M 305.580964487968 663.6746502847517 L 314 684 L 322.419035512032 663.6746502847517 L 305.580964487968 663.6746502847517" stroke-miterlimit="10"></path></g><g transform="translate(-98,-114) scale(1,1)"><path fill="none" stroke="#000000" d="M 492 536 L 840 536 L 840 664" stroke-miterlimit="10"></path></g><g transform="translate(-98,-114) scale(1,1)"><path fill="none" stroke="#000000" d="M 835.790482243984 653.8373251423759 L 840 664 L 844.209517756016 653.8373251423759" stroke-miterlimit="10"></path></g><g transform="translate(-98,-114) scale(1,1)"><g><path fill="none" stroke="none"></path><text fill="#000000" stroke="none" font-family="Arial" font-size="13px" font-style="normal" font-weight="normal" text-decoration="none" x="747" y="649">-relatedWords</text></g></g><g transform="translate(-98,-114) scale(1,1)"><g><path fill="none" stroke="none"></path><text fill="#000000" stroke="none" font-family="Arial" font-size="13px" font-style="normal" font-weight="normal" text-decoration="none" x="851" y="649">0..*</text></g></g><g transform="translate(-98,-114) scale(1,1)"><rect fill="#C0C0C0" stroke="none" x="619" y="131" width="49" height="44" opacity="0.2"></rect></g><g transform="translate(-98,-114) scale(1,1)"><rect fill="#ffffff" stroke="none" x="612" y="124" width="49" height="44"></rect></g><g transform="translate(-98,-114) scale(1,1)"><path fill="none" stroke="#000000" d="M 612 124 L 661 124 L 661 168 L 612 168 L 612 124 Z Z" stroke-miterlimit="10"></path></g><g transform="translate(-98,-114) scale(1,1)"><path fill="none" stroke="#000000" d="M 612 149 L 661 149" stroke-miterlimit="10"></path></g><g transform="translate(-98,-114) scale(1,1)"><path fill="none" stroke="#000000" d="M 612 159 L 661 159" stroke-miterlimit="10"></path></g><g transform="translate(-98,-114) scale(1,1)"><g><path fill="none" stroke="none"></path><text fill="#000000" stroke="none" font-family="Arial" font-size="13px" font-style="normal" font-weight="bold" text-decoration="none" x="620" y="143.5">JPDB</text></g></g><g transform="translate(-98,-114) scale(1,1)"><path fill="none" stroke="#000000" d="M 312 264 L 312 146 L 612 146" stroke-miterlimit="10"></path></g><g transform="translate(-98,-114) scale(1,1)"><path fill="#000000" stroke="none" d="M 601.8373251423759 150.209517756016 L 612 146 L 601.8373251423758 141.790482243984 L 590 146"></path></g><g transform="translate(-98,-114) scale(1,1)"><path fill="none" stroke="#000000" d="M 601.8373251423759 150.209517756016 L 612 146 L 601.8373251423758 141.790482243984 L 590 146 L 601.8373251423759 150.209517756016" stroke-miterlimit="10"></path></g><g transform="translate(-98,-114) scale(1,1)"><g><path fill="none" stroke="none"></path><text fill="#000000" stroke="none" font-family="Arial" font-size="13px" font-style="normal" font-weight="normal" text-decoration="none" x="318" y="248">-kanjisManager</text></g></g><g transform="translate(-98,-114) scale(1,1)"><g><path fill="none" stroke="none"></path><text fill="#000000" stroke="none" font-family="Arial" font-size="13px" font-style="normal" font-weight="normal" text-decoration="none" x="283" y="250">0..1</text></g></g><g transform="translate(-98,-114) scale(1,1)"><path fill="none" stroke="#000000" d="M 984 220 L 984 148 L 661 148" stroke-miterlimit="10"></path></g><g transform="translate(-98,-114) scale(1,1)"><path fill="#000000" stroke="none" d="M 671.1626748576241 143.790482243984 L 661 148 L 671.1626748576241 152.209517756016 L 683 148"></path></g><g transform="translate(-98,-114) scale(1,1)"><path fill="none" stroke="#000000" d="M 671.1626748576241 143.790482243984 L 661 148 L 671.1626748576241 152.209517756016 L 683 148 L 671.1626748576241 143.790482243984" stroke-miterlimit="10"></path></g><g transform="translate(-98,-114) scale(1,1)"><g><path fill="none" stroke="none"></path><text fill="#000000" stroke="none" font-family="Arial" font-size="13px" font-style="normal" font-weight="normal" text-decoration="none" x="886" y="208">-wordsManager</text></g></g><g transform="translate(-98,-114) scale(1,1)"><g><path fill="none" stroke="none"></path><text fill="#000000" stroke="none" font-family="Arial" font-size="13px" font-style="normal" font-weight="normal" text-decoration="none" x="991" y="208">0..1</text></g></g><g transform="translate(-98,-114) scale(1,1)"><path fill="none" stroke="#000000" d="M 136 532 L 108 532 L 108 718 L 240 718" stroke-miterlimit="10"></path></g><g transform="translate(-98,-114) scale(1,1)"><path fill="none" stroke="#000000" d="M 229.83732514237585 722.209517756016 L 240 718 L 229.83732514237585 713.790482243984" stroke-miterlimit="10"></path></g><g transform="translate(-98,-114) scale(1,1)"><g><path fill="none" stroke="none"></path><text fill="#000000" stroke="none" font-family="Arial" font-size="13px" font-style="normal" font-weight="normal" text-decoration="none" x="202" y="710">-key</text></g></g><g transform="translate(-98,-114) scale(1,1)"><g><path fill="none" stroke="none"></path><text fill="#000000" stroke="none" font-family="Arial" font-size="13px" font-style="normal" font-weight="normal" text-decoration="none" x="207" y="737">1..1</text></g></g><g transform="translate(-98,-114) scale(1,1)"><path fill="none" stroke="#000000" d="M 386 728 L 736 728" stroke-miterlimit="10"></path></g><g transform="translate(-98,-114) scale(1,1)"><g><path fill="none" stroke="none"></path><text fill="#000000" stroke="none" font-family="Arial" font-size="13px" font-style="normal" font-weight="normal" text-decoration="none" x="400" y="717">-fullWriting</text></g></g><g transform="translate(-98,-114) scale(1,1)"><g><path fill="none" stroke="none"></path><text fill="#000000" stroke="none" font-family="Arial" font-size="13px" font-style="normal" font-weight="normal" text-decoration="none" x="418" y="748">1..*</text></g></g><g transform="translate(-98,-114) scale(1,1)"><rect fill="#C0C0C0" stroke="none" x="515" y="827" width="106" height="57" opacity="0.2"></rect></g><g transform="translate(-98,-114) scale(1,1)"><rect fill="#ffffff" stroke="none" x="508" y="820" width="106" height="57"></rect></g><g transform="translate(-98,-114) scale(1,1)"><path fill="none" stroke="#000000" d="M 508 820 L 614 820 L 614 877 L 508 877 L 508 820 Z Z" stroke-miterlimit="10"></path></g><g transform="translate(-98,-114) scale(1,1)"><path fill="none" stroke="#000000" d="M 508 845 L 614 845" stroke-miterlimit="10"></path></g><g transform="translate(-98,-114) scale(1,1)"><path fill="none" stroke="#000000" d="M 508 868 L 614 868" stroke-miterlimit="10"></path></g><g transform="translate(-98,-114) scale(1,1)"><g><path fill="none" stroke="none"></path><text fill="#000000" stroke="none" font-family="Arial" font-size="13px" font-style="normal" font-weight="bold" text-decoration="none" x="517" y="839.5">PositionInWord</text></g></g><g transform="translate(-98,-114) scale(1,1)"><g><path fill="none" stroke="none"></path><text fill="#000000" stroke="none" font-family="Arial" font-size="13px" font-style="normal" font-weight="normal" text-decoration="none" x="513" y="862.5">-position: int</text></g></g><g transform="translate(-98,-114) scale(1,1)"><path fill="none" stroke="#000000" d="M 560 819 L 560 729" stroke-miterlimit="10" stroke-dasharray="3"></path></g></g></svg>