<svg version="1.1" xmlns="http://www.w3.org/2000/svg" xmlns:xlink="http://www.w3.org/1999/xlink" width="1178" height="664"><defs></defs><g><g transform="translate(-58,-110) scale(1,1)"><rect fill="#C0C0C0" stroke="none" x="735" y="411" width="498" height="116" opacity="0.2"></rect></g><g transform="translate(-58,-110) scale(1,1)"><rect fill="#ffffff" stroke="none" x="728" y="404" width="498" height="116"></rect></g><g transform="translate(-58,-110) scale(1,1)"><path fill="none" stroke="#000000" d="M 728 404 L 1226 404 L 1226 520 L 728 520 L 728 404 Z Z" stroke-miterlimit="10"></path></g><g transform="translate(-58,-110) scale(1,1)"><path fill="none" stroke="#000000" d="M 728 429 L 1226 429" stroke-miterlimit="10"></path></g><g transform="translate(-58,-110) scale(1,1)"><path fill="none" stroke="#000000" d="M 728 482 L 1226 482" stroke-miterlimit="10"></path></g><g transform="translate(-58,-110) scale(1,1)"><g><path fill="none" stroke="none"></path><text fill="#000000" stroke="none" font-family="Arial" font-size="13px" font-style="normal" font-weight="bold" text-decoration="none" x="961.5" y="423.5">Word</text></g></g><g transform="translate(-58,-110) scale(1,1)"><g><path fill="none" stroke="none"></path><text fill="#000000" stroke="none" font-family="Arial" font-size="13px" font-style="normal" font-weight="normal" text-decoration="none" x="733" y="446.5">-kanas: string</text></g></g><g transform="translate(-58,-110) scale(1,1)"><g><path fill="none" stroke="none"></path><text fill="#000000" stroke="none" font-family="Arial" font-size="13px" font-style="normal" font-weight="normal" text-decoration="none" x="733" y="461.5">-meanings: list of string</text></g></g><g transform="translate(-58,-110) scale(1,1)"><g><path fill="none" stroke="none"></path><text fill="#000000" stroke="none" font-family="Arial" font-size="13px" font-style="normal" font-weight="normal" text-decoration="none" x="733" y="476.5">-studiedTimes: int</text></g></g><g transform="translate(-58,-110) scale(1,1)"><g><path fill="none" stroke="none"></path><text fill="#000000" stroke="none" font-family="Arial" font-size="13px" font-style="normal" font-weight="normal" text-decoration="none" x="733" y="499.5">+Word(kanjis: list of Kanji, kanas: string, meanings: list of string, studiedTimes: int)</text></g></g><g transform="translate(-58,-110) scale(1,1)"><g><path fill="none" stroke="none"></path><text fill="#000000" stroke="none" font-family="Arial" font-size="13px" font-style="normal" font-weight="normal" text-decoration="none" x="733" y="514.5">+study(): void</text></g></g><g transform="translate(-58,-110) scale(1,1)"><rect fill="#C0C0C0" stroke="none" x="127" y="383" width="356" height="100" opacity="0.2"></rect></g><g transform="translate(-58,-110) scale(1,1)"><rect fill="#ffffff" stroke="none" x="120" y="376" width="356" height="100"></rect></g><g transform="translate(-58,-110) scale(1,1)"><path fill="none" stroke="#000000" d="M 120 376 L 476 376 L 476 476 L 120 476 L 120 376 Z Z" stroke-miterlimit="10"></path></g><g transform="translate(-58,-110) scale(1,1)"><path fill="none" stroke="#000000" d="M 120 401 L 476 401" stroke-miterlimit="10"></path></g><g transform="translate(-58,-110) scale(1,1)"><path fill="none" stroke="#000000" d="M 120 454 L 476 454" stroke-miterlimit="10"></path></g><g transform="translate(-58,-110) scale(1,1)"><g><path fill="none" stroke="none"></path><text fill="#000000" stroke="none" font-family="Arial" font-size="13px" font-style="normal" font-weight="bold" text-decoration="none" x="283.5" y="395.5">Kanji</text></g></g><g transform="translate(-58,-110) scale(1,1)"><g><path fill="none" stroke="none"></path><text fill="#000000" stroke="none" font-family="Arial" font-size="13px" font-style="normal" font-weight="normal" text-decoration="none" x="125" y="418.5">-character: string</text></g></g><g transform="translate(-58,-110) scale(1,1)"><g><path fill="none" stroke="none"></path><text fill="#000000" stroke="none" font-family="Arial" font-size="13px" font-style="normal" font-weight="normal" text-decoration="none" x="125" y="433.5">-meanings: list of string</text></g></g><g transform="translate(-58,-110) scale(1,1)"><g><path fill="none" stroke="none"></path><text fill="#000000" stroke="none" font-family="Arial" font-size="13px" font-style="normal" font-weight="normal" text-decoration="none" x="125" y="448.5">-strokes: int</text></g></g><g transform="translate(-58,-110) scale(1,1)"><g><path fill="none" stroke="none"></path><text fill="#000000" stroke="none" font-family="Arial" font-size="13px" font-style="normal" font-weight="normal" text-decoration="none" x="125" y="471.5">+Kanji(character: string, meanings: list of string, stokes: int)</text></g></g><g transform="translate(-58,-110) scale(1,1)"><rect fill="#C0C0C0" stroke="none" x="811" y="127" width="341" height="175" opacity="0.2"></rect></g><g transform="translate(-58,-110) scale(1,1)"><rect fill="#ffffff" stroke="none" x="804" y="120" width="341" height="175"></rect></g><g transform="translate(-58,-110) scale(1,1)"><path fill="none" stroke="#000000" d="M 804 120 L 1145 120 L 1145 295 L 804 295 L 804 120 Z Z" stroke-miterlimit="10"></path></g><g transform="translate(-58,-110) scale(1,1)"><path fill="none" stroke="#000000" d="M 804 145 L 1145 145" stroke-miterlimit="10"></path></g><g transform="translate(-58,-110) scale(1,1)"><path fill="none" stroke="#000000" d="M 804 168 L 1145 168" stroke-miterlimit="10"></path></g><g transform="translate(-58,-110) scale(1,1)"><g><path fill="none" stroke="none"></path><text fill="#000000" stroke="none" font-family="Arial" font-size="13px" font-style="normal" font-weight="bold" text-decoration="none" x="930.5" y="139.5">WordsManager</text></g></g><g transform="translate(-58,-110) scale(1,1)"><g><path fill="none" stroke="none"></path><text fill="#000000" stroke="none" font-family="Arial" font-size="13px" font-style="normal" font-weight="normal" text-decoration="none" x="809" y="162.5">-database: sqlite3.Connection</text></g></g><g transform="translate(-58,-110) scale(1,1)"><g><path fill="none" stroke="none"></path><text fill="#000000" stroke="none" font-family="Arial" font-size="13px" font-style="normal" font-weight="normal" text-decoration="none" x="809" y="185.5">+loadWords(): void</text></g></g><g transform="translate(-58,-110) scale(1,1)"><g><path fill="none" stroke="none"></path><text fill="#000000" stroke="none" font-family="Arial" font-size="13px" font-style="normal" font-weight="normal" text-decoration="none" x="809" y="200.5">+addWordToTable(word : Word): void</text></g></g><g transform="translate(-58,-110) scale(1,1)"><g><path fill="none" stroke="none"></path><text fill="#000000" stroke="none" font-family="Arial" font-size="13px" font-style="normal" font-weight="normal" text-decoration="none" x="809" y="215.5">+updateWordInTable(word : Word): void</text></g></g><g transform="translate(-58,-110) scale(1,1)"><g><path fill="none" stroke="none"></path><text fill="#000000" stroke="none" font-family="Arial" font-size="13px" font-style="normal" font-weight="normal" text-decoration="none" x="809" y="230.5">+removeWordFromTable(word : Word): void</text></g></g><g transform="translate(-58,-110) scale(1,1)"><g><path fill="none" stroke="none"></path><text fill="#000000" stroke="none" font-family="Arial" font-size="13px" font-style="normal" font-weight="normal" text-decoration="none" x="809" y="245.5">+searchByKanjis(kanjis: list of Kanji): list of Word</text></g></g><g transform="translate(-58,-110) scale(1,1)"><g><path fill="none" stroke="none"></path><text fill="#000000" stroke="none" font-family="Arial" font-size="13px" font-style="normal" font-weight="normal" text-decoration="none" x="809" y="260.5">+searchByWriting(writing: string): list of Word</text></g></g><g transform="translate(-58,-110) scale(1,1)"><g><path fill="none" stroke="none"></path><text fill="#000000" stroke="none" font-family="Arial" font-size="13px" font-style="normal" font-weight="normal" text-decoration="none" x="809" y="275.5">+searchByMeanings(meanings: list of string): list of Word</text></g></g><g transform="translate(-58,-110) scale(1,1)"><g><path fill="none" stroke="none"></path><text fill="#000000" stroke="none" font-family="Arial" font-size="13px" font-style="normal" font-weight="normal" text-decoration="none" x="809" y="290.5">+searchByKanas(kanas: string): lis of Word</text></g></g><g transform="translate(-58,-110) scale(1,1)"><rect fill="#C0C0C0" stroke="none" x="135" y="147" width="339" height="130" opacity="0.2"></rect></g><g transform="translate(-58,-110) scale(1,1)"><rect fill="#ffffff" stroke="none" x="128" y="140" width="339" height="130"></rect></g><g transform="translate(-58,-110) scale(1,1)"><path fill="none" stroke="#000000" d="M 128 140 L 467 140 L 467 270 L 128 270 L 128 140 Z Z" stroke-miterlimit="10"></path></g><g transform="translate(-58,-110) scale(1,1)"><path fill="none" stroke="#000000" d="M 128 165 L 467 165" stroke-miterlimit="10"></path></g><g transform="translate(-58,-110) scale(1,1)"><path fill="none" stroke="#000000" d="M 128 188 L 467 188" stroke-miterlimit="10"></path></g><g transform="translate(-58,-110) scale(1,1)"><g><path fill="none" stroke="none"></path><text fill="#000000" stroke="none" font-family="Arial" font-size="13px" font-style="normal" font-weight="bold" text-decoration="none" x="254.5" y="159.5">KanjisManager</text></g></g><g transform="translate(-58,-110) scale(1,1)"><g><path fill="none" stroke="none"></path><text fill="#000000" stroke="none" font-family="Arial" font-size="13px" font-style="normal" font-weight="normal" text-decoration="none" x="133" y="182.5">-database: sqlite3.Connection</text></g></g><g transform="translate(-58,-110) scale(1,1)"><g><path fill="none" stroke="none"></path><text fill="#000000" stroke="none" font-family="Arial" font-size="13px" font-style="normal" font-weight="normal" text-decoration="none" x="133" y="205.5">+loadKanjis(): void</text></g></g><g transform="translate(-58,-110) scale(1,1)"><g><path fill="none" stroke="none"></path><text fill="#000000" stroke="none" font-family="Arial" font-size="13px" font-style="normal" font-weight="normal" text-decoration="none" x="133" y="220.5">+addToTable(kanji: Kanji): void</text></g></g><g transform="translate(-58,-110) scale(1,1)"><g><path fill="none" stroke="none"></path><text fill="#000000" stroke="none" font-family="Arial" font-size="13px" font-style="normal" font-weight="normal" text-decoration="none" x="133" y="235.5">+removeFromTable(kanji: Kanji): void</text></g></g><g transform="translate(-58,-110) scale(1,1)"><g><path fill="none" stroke="none"></path><text fill="#000000" stroke="none" font-family="Arial" font-size="13px" font-style="normal" font-weight="normal" text-decoration="none" x="133" y="250.5">+searchByCharacter(character: string): Kanji</text></g></g><g transform="translate(-58,-110) scale(1,1)"><g><path fill="none" stroke="none"></path><text fill="#000000" stroke="none" font-family="Arial" font-size="13px" font-style="normal" font-weight="normal" text-decoration="none" x="133" y="265.5">+searchByMeanings(meanings: list of string): list of Kanji</text></g></g><g transform="translate(-58,-110) scale(1,1)"><rect fill="#C0C0C0" stroke="none" x="75" y="583" width="469" height="70" opacity="0.2"></rect></g><g transform="translate(-58,-110) scale(1,1)"><rect fill="#ffffff" stroke="none" x="68" y="576" width="469" height="70"></rect></g><g transform="translate(-58,-110) scale(1,1)"><path fill="none" stroke="#000000" d="M 68 576 L 537 576 L 537 646 L 68 646 L 68 576 Z Z" stroke-miterlimit="10"></path></g><g transform="translate(-58,-110) scale(1,1)"><path fill="none" stroke="#000000" d="M 68 601 L 537 601" stroke-miterlimit="10"></path></g><g transform="translate(-58,-110) scale(1,1)"><path fill="none" stroke="#000000" d="M 68 624 L 537 624" stroke-miterlimit="10"></path></g><g transform="translate(-58,-110) scale(1,1)"><g><path fill="none" stroke="none"></path><text fill="#000000" stroke="none" font-family="Arial" font-size="13px" font-style="normal" font-weight="bold" text-decoration="none" x="267.5" y="595.5">InWordKanji</text></g></g><g transform="translate(-58,-110) scale(1,1)"><g><path fill="none" stroke="none"></path><text fill="#000000" stroke="none" font-family="Arial" font-size="13px" font-style="normal" font-weight="normal" text-decoration="none" x="73" y="618.5">-position: int</text></g></g><g transform="translate(-58,-110) scale(1,1)"><g><path fill="none" stroke="none"></path><text fill="#000000" stroke="none" font-family="Arial" font-size="13px" font-style="normal" font-weight="normal" text-decoration="none" x="73" y="641.5">+InWordKanji(character: string, manings: list of string, strokes: int, position: int)</text></g></g><g transform="translate(-58,-110) scale(1,1)"><path fill="none" stroke="#000000" d="M 975 296 L 976 403" stroke-miterlimit="10"></path></g><g transform="translate(-58,-110) scale(1,1)"><path fill="none" stroke="#000000" d="M 971.6956919476497 392.8771085064359 L 976 403 L 980.114359808182 392.79842936755244" stroke-miterlimit="10"></path></g><g transform="translate(-58,-110) scale(1,1)"><g><path fill="none" stroke="none"></path><text fill="#000000" stroke="none" font-family="Arial" font-size="13px" font-style="normal" font-weight="normal" text-decoration="none" x="976" y="365">-words</text></g></g><g transform="translate(-58,-110) scale(1,1)"><g><path fill="none" stroke="none"></path><text fill="#000000" stroke="none" font-family="Arial" font-size="13px" font-style="normal" font-weight="normal" text-decoration="none" x="953" y="388">0..*</text></g></g><g transform="translate(-58,-110) scale(1,1)"><path fill="none" stroke="#000000" d="M 301 575 L 299 477" stroke-miterlimit="10"></path></g><g transform="translate(-58,-110) scale(1,1)"><path fill="#FFFFFF" stroke="none" d="M 307.8319995253586 497.1493370705854 L 299 477 L 290.997433876793 497.4928996348418"></path></g><g transform="translate(-58,-110) scale(1,1)"><path fill="none" stroke="#000000" d="M 307.8319995253586 497.1493370705854 L 299 477 L 290.997433876793 497.4928996348418 L 307.8319995253586 497.1493370705854" stroke-miterlimit="10"></path></g><g transform="translate(-58,-110) scale(1,1)"><path fill="none" stroke="#000000" d="M 297 271 L 298 375" stroke-miterlimit="10"></path></g><g transform="translate(-58,-110) scale(1,1)"><path fill="none" stroke="#000000" d="M 293.69296331678123 364.8782691692869 L 298 375 L 302.111609662219 364.79732064673465" stroke-miterlimit="10"></path></g><g transform="translate(-58,-110) scale(1,1)"><g><path fill="none" stroke="none"></path><text fill="#000000" stroke="none" font-family="Arial" font-size="13px" font-style="normal" font-weight="normal" text-decoration="none" x="307" y="344">-kanjis</text></g></g><g transform="translate(-58,-110) scale(1,1)"><g><path fill="none" stroke="none"></path><text fill="#000000" stroke="none" font-family="Arial" font-size="13px" font-style="normal" font-weight="normal" text-decoration="none" x="275" y="360">0..*</text></g></g><g transform="translate(-58,-110) scale(1,1)"><path fill="none" stroke="#000000" d="M 803 206 L 468 206" stroke-miterlimit="10"></path></g><g transform="translate(-58,-110) scale(1,1)"><g><path fill="none" stroke="none"></path><text fill="#000000" stroke="none" font-family="Arial" font-size="13px" font-style="normal" font-weight="normal" text-decoration="none" x="713" y="231">-wordsManager</text></g></g><g transform="translate(-58,-110) scale(1,1)"><g><path fill="none" stroke="none"></path><text fill="#000000" stroke="none" font-family="Arial" font-size="13px" font-style="normal" font-weight="normal" text-decoration="none" x="770" y="200">0..1</text></g></g><g transform="translate(-58,-110) scale(1,1)"><g><path fill="none" stroke="none"></path><text fill="#000000" stroke="none" font-family="Arial" font-size="13px" font-style="normal" font-weight="normal" text-decoration="none" x="447" y="227">+kanjisManager</text></g></g><g transform="translate(-58,-110) scale(1,1)"><g><path fill="none" stroke="none"></path><text fill="#000000" stroke="none" font-family="Arial" font-size="13px" font-style="normal" font-weight="normal" text-decoration="none" x="478" y="200">0..1</text></g></g><g transform="translate(-58,-110) scale(1,1)"><path fill="#ffffff" stroke="none" d="M 948 668 L 1081 668 L 1091 678 L 1091 763 L 948 763 L 948 668"></path></g><g transform="translate(-58,-110) scale(1,1)"><path fill="none" stroke="#000000" d="M 948 668 L 1081 668 L 1091 678 L 1091 763 L 948 763 L 948 668 L 948 668" stroke-miterlimit="10"></path></g><g transform="translate(-58,-110) scale(1,1)"><path fill="none" stroke="#000000" d="M 1081 668 L 1081 678 L 1091 678 L 1081 668" stroke-miterlimit="10"></path></g><g transform="translate(-58,-110) scale(1,1)"><g><path fill="none" stroke="none"></path><text fill="#000000" stroke="none" font-family="Arial" font-size="13px" font-style="normal" font-weight="normal" text-decoration="none" x="953" y="686">Project JPBD</text></g></g><g transform="translate(-58,-110) scale(1,1)"><g><path fill="none" stroke="none"></path><text fill="#000000" stroke="none" font-family="Arial" font-size="13px" font-style="normal" font-weight="normal" text-decoration="none" x="953" y="701">Author : Armand</text><text fill="#000000" stroke="none" font-family="Arial" font-size="13px" font-style="normal" font-weight="normal" text-decoration="none" x="953" y="714">FOUCAULT</text></g></g><g transform="translate(-58,-110) scale(1,1)"><g><path fill="none" stroke="none"></path><text fill="#000000" stroke="none" font-family="Arial" font-size="13px" font-style="normal" font-weight="normal" text-decoration="none" x="953" y="729">Diagram version 1.0</text></g></g><g transform="translate(-58,-110) scale(1,1)"><g><path fill="none" stroke="none"></path><text fill="#000000" stroke="none" font-family="Arial" font-size="13px" font-style="normal" font-weight="normal" text-decoration="none" x="953" y="744">2 June 2015</text></g></g></g></svg>