<svg version="1.1" xmlns="http://www.w3.org/2000/svg" xmlns:xlink="http://www.w3.org/1999/xlink" width="1182" height="756"><defs></defs><g><g transform="translate(-50,-86) scale(1,1)"><rect fill="#C0C0C0" stroke="none" x="731" y="571" width="498" height="116" opacity="0.2"></rect></g><g transform="translate(-50,-86) scale(1,1)"><rect fill="#ffffff" stroke="none" x="724" y="564" width="498" height="116"></rect></g><g transform="translate(-50,-86) scale(1,1)"><path fill="none" stroke="#000000" d="M 724 564 L 1222 564 L 1222 680 L 724 680 L 724 564 Z Z" stroke-miterlimit="10"></path></g><g transform="translate(-50,-86) scale(1,1)"><path fill="none" stroke="#000000" d="M 724 589 L 1222 589" stroke-miterlimit="10"></path></g><g transform="translate(-50,-86) scale(1,1)"><path fill="none" stroke="#000000" d="M 724 642 L 1222 642" stroke-miterlimit="10"></path></g><g transform="translate(-50,-86) scale(1,1)"><g><path fill="none" stroke="none"></path><text fill="#000000" stroke="none" font-family="Arial" font-size="13px" font-style="normal" font-weight="bold" text-decoration="none" x="957.5" y="583.5">Word</text></g></g><g transform="translate(-50,-86) scale(1,1)"><g><path fill="none" stroke="none"></path><text fill="#000000" stroke="none" font-family="Arial" font-size="13px" font-style="normal" font-weight="normal" text-decoration="none" x="729" y="606.5">-kanas: string</text></g></g><g transform="translate(-50,-86) scale(1,1)"><g><path fill="none" stroke="none"></path><text fill="#000000" stroke="none" font-family="Arial" font-size="13px" font-style="normal" font-weight="normal" text-decoration="none" x="729" y="621.5">-meanings: list of string</text></g></g><g transform="translate(-50,-86) scale(1,1)"><g><path fill="none" stroke="none"></path><text fill="#000000" stroke="none" font-family="Arial" font-size="13px" font-style="normal" font-weight="normal" text-decoration="none" x="729" y="636.5">-studiedTimes: int</text></g></g><g transform="translate(-50,-86) scale(1,1)"><g><path fill="none" stroke="none"></path><text fill="#000000" stroke="none" font-family="Arial" font-size="13px" font-style="normal" font-weight="normal" text-decoration="none" x="729" y="659.5">+Word(kanjis: list of Kanji, kanas: string, meanings: list of string, studiedTimes: int)</text></g></g><g transform="translate(-50,-86) scale(1,1)"><g><path fill="none" stroke="none"></path><text fill="#000000" stroke="none" font-family="Arial" font-size="13px" font-style="normal" font-weight="normal" text-decoration="none" x="729" y="674.5">+study(): void</text></g></g><g transform="translate(-50,-86) scale(1,1)"><rect fill="#C0C0C0" stroke="none" x="127" y="383" width="356" height="100" opacity="0.2"></rect></g><g transform="translate(-50,-86) scale(1,1)"><rect fill="#ffffff" stroke="none" x="120" y="376" width="356" height="100"></rect></g><g transform="translate(-50,-86) scale(1,1)"><path fill="none" stroke="#000000" d="M 120 376 L 476 376 L 476 476 L 120 476 L 120 376 Z Z" stroke-miterlimit="10"></path></g><g transform="translate(-50,-86) scale(1,1)"><path fill="none" stroke="#000000" d="M 120 401 L 476 401" stroke-miterlimit="10"></path></g><g transform="translate(-50,-86) scale(1,1)"><path fill="none" stroke="#000000" d="M 120 454 L 476 454" stroke-miterlimit="10"></path></g><g transform="translate(-50,-86) scale(1,1)"><g><path fill="none" stroke="none"></path><text fill="#000000" stroke="none" font-family="Arial" font-size="13px" font-style="normal" font-weight="bold" text-decoration="none" x="283.5" y="395.5">Kanji</text></g></g><g transform="translate(-50,-86) scale(1,1)"><g><path fill="none" stroke="none"></path><text fill="#000000" stroke="none" font-family="Arial" font-size="13px" font-style="normal" font-weight="normal" text-decoration="none" x="125" y="418.5">-character: string</text></g></g><g transform="translate(-50,-86) scale(1,1)"><g><path fill="none" stroke="none"></path><text fill="#000000" stroke="none" font-family="Arial" font-size="13px" font-style="normal" font-weight="normal" text-decoration="none" x="125" y="433.5">-meanings: list of string</text></g></g><g transform="translate(-50,-86) scale(1,1)"><g><path fill="none" stroke="none"></path><text fill="#000000" stroke="none" font-family="Arial" font-size="13px" font-style="normal" font-weight="normal" text-decoration="none" x="125" y="448.5">-strokes: int</text></g></g><g transform="translate(-50,-86) scale(1,1)"><g><path fill="none" stroke="none"></path><text fill="#000000" stroke="none" font-family="Arial" font-size="13px" font-style="normal" font-weight="normal" text-decoration="none" x="125" y="471.5">+Kanji(character: string, meanings: list of string, stokes: int)</text></g></g><g transform="translate(-50,-86) scale(1,1)"><rect fill="#C0C0C0" stroke="none" x="807" y="103" width="343" height="220" opacity="0.2"></rect></g><g transform="translate(-50,-86) scale(1,1)"><rect fill="#ffffff" stroke="none" x="800" y="96" width="343" height="220"></rect></g><g transform="translate(-50,-86) scale(1,1)"><path fill="none" stroke="#000000" d="M 800 96 L 1143 96 L 1143 316 L 800 316 L 800 96 Z Z" stroke-miterlimit="10"></path></g><g transform="translate(-50,-86) scale(1,1)"><path fill="none" stroke="#000000" d="M 800 121 L 1143 121" stroke-miterlimit="10"></path></g><g transform="translate(-50,-86) scale(1,1)"><path fill="none" stroke="#000000" d="M 800 144 L 1143 144" stroke-miterlimit="10"></path></g><g transform="translate(-50,-86) scale(1,1)"><g><path fill="none" stroke="none"></path><text fill="#000000" stroke="none" font-family="Arial" font-size="13px" font-style="normal" font-weight="bold" text-decoration="none" x="927.5" y="115.5">WordsManager</text></g></g><g transform="translate(-50,-86) scale(1,1)"><g><path fill="none" stroke="none"></path><text fill="#000000" stroke="none" font-family="Arial" font-size="13px" font-style="normal" font-weight="normal" text-decoration="none" x="805" y="138.5">-database: sqlite3.Connection</text></g></g><g transform="translate(-50,-86) scale(1,1)"><g><path fill="none" stroke="none"></path><text fill="#000000" stroke="none" font-family="Arial" font-size="13px" font-style="normal" font-weight="normal" text-decoration="none" x="805" y="161.5">+loadWords(): void</text></g></g><g transform="translate(-50,-86) scale(1,1)"><g><path fill="none" stroke="none"></path><text fill="#000000" stroke="none" font-family="Arial" font-size="13px" font-style="normal" font-weight="normal" text-decoration="none" x="805" y="176.5">+addWordToTable(word : Word): void</text></g></g><g transform="translate(-50,-86) scale(1,1)"><g><path fill="none" stroke="none"></path><text fill="#000000" stroke="none" font-family="Arial" font-size="13px" font-style="normal" font-weight="normal" text-decoration="none" x="805" y="191.5">+updateWordInTable(word : Word): void</text></g></g><g transform="translate(-50,-86) scale(1,1)"><g><path fill="none" stroke="none"></path><text fill="#000000" stroke="none" font-family="Arial" font-size="13px" font-style="normal" font-weight="normal" text-decoration="none" x="805" y="206.5">+removeWordFromTable(word : Word): void</text></g></g><g transform="translate(-50,-86) scale(1,1)"><g><path fill="none" stroke="none"></path><text fill="#000000" stroke="none" font-family="Arial" font-size="13px" font-style="normal" font-weight="normal" text-decoration="none" x="805" y="221.5">+searchByKanjis(kanjis: list of Kanji): list of Word</text></g></g><g transform="translate(-50,-86) scale(1,1)"><g><path fill="none" stroke="none"></path><text fill="#000000" stroke="none" font-family="Arial" font-size="13px" font-style="normal" font-weight="normal" text-decoration="none" x="805" y="236.5">+searchByWriting(writing: string): list of Word</text></g></g><g transform="translate(-50,-86) scale(1,1)"><g><path fill="none" stroke="none"></path><text fill="#000000" stroke="none" font-family="Arial" font-size="13px" font-style="normal" font-weight="normal" text-decoration="none" x="805" y="251.5">+searchByMeanings(meanings: list of string): list of Word</text></g></g><g transform="translate(-50,-86) scale(1,1)"><g><path fill="none" stroke="none"></path><text fill="#000000" stroke="none" font-family="Arial" font-size="13px" font-style="normal" font-weight="normal" text-decoration="none" x="805" y="266.5">+searchByKanas(kanas: string): lis of Word</text></g></g><g transform="translate(-50,-86) scale(1,1)"><g><path fill="none" stroke="none"></path><text fill="#000000" stroke="none" font-family="Arial" font-size="13px" font-style="normal" font-weight="normal" text-decoration="none" x="805" y="281.5">+isInDatabase(word: Word): boolean</text></g></g><g transform="translate(-50,-86) scale(1,1)"><g><path fill="none" stroke="none"></path><text fill="#000000" stroke="none" font-family="Arial" font-size="13px" font-style="normal" font-weight="normal" text-decoration="none" x="805" y="296.5">+bindKanjisManager(kanjisManager: KanjisManager): void</text></g></g><g transform="translate(-50,-86) scale(1,1)"><g><path fill="none" stroke="none"></path><text fill="#000000" stroke="none" font-family="Arial" font-size="13px" font-style="normal" font-weight="normal" text-decoration="none" x="805" y="311.5">+constructWord(idWord: int): Word</text></g></g><g transform="translate(-50,-86) scale(1,1)"><rect fill="#C0C0C0" stroke="none" x="135" y="147" width="339" height="130" opacity="0.2"></rect></g><g transform="translate(-50,-86) scale(1,1)"><rect fill="#ffffff" stroke="none" x="128" y="140" width="339" height="130"></rect></g><g transform="translate(-50,-86) scale(1,1)"><path fill="none" stroke="#000000" d="M 128 140 L 467 140 L 467 270 L 128 270 L 128 140 Z Z" stroke-miterlimit="10"></path></g><g transform="translate(-50,-86) scale(1,1)"><path fill="none" stroke="#000000" d="M 128 165 L 467 165" stroke-miterlimit="10"></path></g><g transform="translate(-50,-86) scale(1,1)"><path fill="none" stroke="#000000" d="M 128 188 L 467 188" stroke-miterlimit="10"></path></g><g transform="translate(-50,-86) scale(1,1)"><g><path fill="none" stroke="none"></path><text fill="#000000" stroke="none" font-family="Arial" font-size="13px" font-style="normal" font-weight="bold" text-decoration="none" x="254.5" y="159.5">KanjisManager</text></g></g><g transform="translate(-50,-86) scale(1,1)"><g><path fill="none" stroke="none"></path><text fill="#000000" stroke="none" font-family="Arial" font-size="13px" font-style="normal" font-weight="normal" text-decoration="none" x="133" y="182.5">-database: sqlite3.Connection</text></g></g><g transform="translate(-50,-86) scale(1,1)"><g><path fill="none" stroke="none"></path><text fill="#000000" stroke="none" font-family="Arial" font-size="13px" font-style="normal" font-weight="normal" text-decoration="none" x="133" y="205.5">+loadKanjis(): void</text></g></g><g transform="translate(-50,-86) scale(1,1)"><g><path fill="none" stroke="none"></path><text fill="#000000" stroke="none" font-family="Arial" font-size="13px" font-style="normal" font-weight="normal" text-decoration="none" x="133" y="220.5">+addToTable(kanji: Kanji): void</text></g></g><g transform="translate(-50,-86) scale(1,1)"><g><path fill="none" stroke="none"></path><text fill="#000000" stroke="none" font-family="Arial" font-size="13px" font-style="normal" font-weight="normal" text-decoration="none" x="133" y="235.5">+removeFromTable(kanji: Kanji): void</text></g></g><g transform="translate(-50,-86) scale(1,1)"><g><path fill="none" stroke="none"></path><text fill="#000000" stroke="none" font-family="Arial" font-size="13px" font-style="normal" font-weight="normal" text-decoration="none" x="133" y="250.5">+searchByCharacter(character: string): Kanji</text></g></g><g transform="translate(-50,-86) scale(1,1)"><g><path fill="none" stroke="none"></path><text fill="#000000" stroke="none" font-family="Arial" font-size="13px" font-style="normal" font-weight="normal" text-decoration="none" x="133" y="265.5">+searchByMeanings(meanings: list of string): list of Kanji</text></g></g><g transform="translate(-50,-86) scale(1,1)"><rect fill="#C0C0C0" stroke="none" x="67" y="583" width="469" height="70" opacity="0.2"></rect></g><g transform="translate(-50,-86) scale(1,1)"><rect fill="#ffffff" stroke="none" x="60" y="576" width="469" height="70"></rect></g><g transform="translate(-50,-86) scale(1,1)"><path fill="none" stroke="#000000" d="M 60 576 L 529 576 L 529 646 L 60 646 L 60 576 Z Z" stroke-miterlimit="10"></path></g><g transform="translate(-50,-86) scale(1,1)"><path fill="none" stroke="#000000" d="M 60 601 L 529 601" stroke-miterlimit="10"></path></g><g transform="translate(-50,-86) scale(1,1)"><path fill="none" stroke="#000000" d="M 60 624 L 529 624" stroke-miterlimit="10"></path></g><g transform="translate(-50,-86) scale(1,1)"><g><path fill="none" stroke="none"></path><text fill="#000000" stroke="none" font-family="Arial" font-size="13px" font-style="normal" font-weight="bold" text-decoration="none" x="259.5" y="595.5">InWordKanji</text></g></g><g transform="translate(-50,-86) scale(1,1)"><g><path fill="none" stroke="none"></path><text fill="#000000" stroke="none" font-family="Arial" font-size="13px" font-style="normal" font-weight="normal" text-decoration="none" x="65" y="618.5">-position: int</text></g></g><g transform="translate(-50,-86) scale(1,1)"><g><path fill="none" stroke="none"></path><text fill="#000000" stroke="none" font-family="Arial" font-size="13px" font-style="normal" font-weight="normal" text-decoration="none" x="65" y="641.5">+InWordKanji(character: string, manings: list of string, strokes: int, position: int)</text></g></g><g transform="translate(-50,-86) scale(1,1)"><path fill="none" stroke="#000000" d="M 972 317 L 973 563" stroke-miterlimit="10"></path></g><g transform="translate(-50,-86) scale(1,1)"><path fill="none" stroke="#000000" d="M 968.7492056786691 552.8545208275931 L 973 563 L 977.1681716311534 552.8202973887619" stroke-miterlimit="10"></path></g><g transform="translate(-50,-86) scale(1,1)"><g><path fill="none" stroke="none"></path><text fill="#000000" stroke="none" font-family="Arial" font-size="13px" font-style="normal" font-weight="normal" text-decoration="none" x="973" y="526">-words</text></g></g><g transform="translate(-50,-86) scale(1,1)"><g><path fill="none" stroke="none"></path><text fill="#000000" stroke="none" font-family="Arial" font-size="13px" font-style="normal" font-weight="normal" text-decoration="none" x="950" y="548">0..*</text></g></g><g transform="translate(-50,-86) scale(1,1)"><path fill="none" stroke="#000000" d="M 295 575 L 297 477" stroke-miterlimit="10"></path></g><g transform="translate(-50,-86) scale(1,1)"><path fill="#FFFFFF" stroke="none" d="M 305.002566123207 497.4928996348418 L 297 477 L 288.1680004746414 497.1493370705854"></path></g><g transform="translate(-50,-86) scale(1,1)"><path fill="none" stroke="#000000" d="M 305.002566123207 497.4928996348418 L 297 477 L 288.1680004746414 497.1493370705854 L 305.002566123207 497.4928996348418" stroke-miterlimit="10"></path></g><g transform="translate(-50,-86) scale(1,1)"><path fill="none" stroke="#000000" d="M 297 271 L 298 375" stroke-miterlimit="10"></path></g><g transform="translate(-50,-86) scale(1,1)"><path fill="none" stroke="#000000" d="M 293.69296331678123 364.8782691692869 L 298 375 L 302.111609662219 364.79732064673465" stroke-miterlimit="10"></path></g><g transform="translate(-50,-86) scale(1,1)"><g><path fill="none" stroke="none"></path><text fill="#000000" stroke="none" font-family="Arial" font-size="13px" font-style="normal" font-weight="normal" text-decoration="none" x="307" y="344">-kanjis</text></g></g><g transform="translate(-50,-86) scale(1,1)"><g><path fill="none" stroke="none"></path><text fill="#000000" stroke="none" font-family="Arial" font-size="13px" font-style="normal" font-weight="normal" text-decoration="none" x="275" y="360">0..*</text></g></g><g transform="translate(-50,-86) scale(1,1)"><path fill="none" stroke="#000000" d="M 799 206 L 468 205" stroke-miterlimit="10"></path></g><g transform="translate(-50,-86) scale(1,1)"><g><path fill="none" stroke="none"></path><text fill="#000000" stroke="none" font-family="Arial" font-size="13px" font-style="normal" font-weight="normal" text-decoration="none" x="709" y="230">-wordsManager</text></g></g><g transform="translate(-50,-86) scale(1,1)"><g><path fill="none" stroke="none"></path><text fill="#000000" stroke="none" font-family="Arial" font-size="13px" font-style="normal" font-weight="normal" text-decoration="none" x="766" y="200">0..1</text></g></g><g transform="translate(-50,-86) scale(1,1)"><g><path fill="none" stroke="none"></path><text fill="#000000" stroke="none" font-family="Arial" font-size="13px" font-style="normal" font-weight="normal" text-decoration="none" x="447" y="227">+kanjisManager</text></g></g><g transform="translate(-50,-86) scale(1,1)"><g><path fill="none" stroke="none"></path><text fill="#000000" stroke="none" font-family="Arial" font-size="13px" font-style="normal" font-weight="normal" text-decoration="none" x="478" y="199">0..1</text></g></g><g transform="translate(-50,-86) scale(1,1)"><path fill="#ffffff" stroke="none" d="M 964 736 L 1145 736 L 1155 746 L 1155 831 L 964 831 L 964 736"></path></g><g transform="translate(-50,-86) scale(1,1)"><path fill="none" stroke="#000000" d="M 964 736 L 1145 736 L 1155 746 L 1155 831 L 964 831 L 964 736 L 964 736" stroke-miterlimit="10"></path></g><g transform="translate(-50,-86) scale(1,1)"><path fill="none" stroke="#000000" d="M 1145 736 L 1145 746 L 1155 746 L 1145 736" stroke-miterlimit="10"></path></g><g transform="translate(-50,-86) scale(1,1)"><g><path fill="none" stroke="none"></path><text fill="#000000" stroke="none" font-family="Arial" font-size="13px" font-style="normal" font-weight="normal" text-decoration="none" x="969" y="754">Project JPBD</text></g></g><g transform="translate(-50,-86) scale(1,1)"><g><path fill="none" stroke="none"></path><text fill="#000000" stroke="none" font-family="Arial" font-size="13px" font-style="normal" font-weight="normal" text-decoration="none" x="969" y="769">Author : Armand FOUCAULT</text></g></g><g transform="translate(-50,-86) scale(1,1)"><g><path fill="none" stroke="none"></path><text fill="#000000" stroke="none" font-family="Arial" font-size="13px" font-style="normal" font-weight="normal" text-decoration="none" x="969" y="784">Diagram version 1.1</text></g></g><g transform="translate(-50,-86) scale(1,1)"><g><path fill="none" stroke="none"></path><text fill="#000000" stroke="none" font-family="Arial" font-size="13px" font-style="normal" font-weight="normal" text-decoration="none" x="969" y="799">June 02, 2015</text></g></g><g transform="translate(-50,-86) scale(1,1)"><path fill="none" stroke="#000000" d="M 723 618 L 530 615" stroke-miterlimit="10"></path></g><g transform="translate(-50,-86) scale(1,1)"><path fill="none" stroke="#000000" d="M 540.2268723564739 610.9489406565209 L 530 615 L 540.0960223263552 619.3669592608288" stroke-miterlimit="10"></path></g><g transform="translate(-50,-86) scale(1,1)"><g><path fill="none" stroke="none"></path><text fill="#000000" stroke="none" font-family="Arial" font-size="13px" font-style="normal" font-weight="normal" text-decoration="none" x="534" y="637">+kanjis</text></g></g><g transform="translate(-50,-86) scale(1,1)"><g><path fill="none" stroke="none"></path><text fill="#000000" stroke="none" font-family="Arial" font-size="13px" font-style="normal" font-weight="normal" text-decoration="none" x="541" y="609">0..*</text></g></g></g></svg>