<svg version="1.1" xmlns="http://www.w3.org/2000/svg" xmlns:xlink="http://www.w3.org/1999/xlink" width="1456" height="1224"><defs></defs><g><g transform="translate(-98,-114) scale(1,1)"><rect fill="#C0C0C0" stroke="none" x="743" y="683" width="572" height="160" opacity="0.2"></rect></g><g transform="translate(-98,-114) scale(1,1)"><rect fill="#ffffff" stroke="none" x="736" y="676" width="572" height="160"></rect></g><g transform="translate(-98,-114) scale(1,1)"><path fill="none" stroke="#000000" d="M 736 676 L 1308 676 L 1308 836 L 736 836 L 736 676 Z Z" stroke-miterlimit="10"></path></g><g transform="translate(-98,-114) scale(1,1)"><path fill="none" stroke="#000000" d="M 736 701 L 1308 701" stroke-miterlimit="10"></path></g><g transform="translate(-98,-114) scale(1,1)"><path fill="none" stroke="#000000" d="M 736 739 L 1308 739" stroke-miterlimit="10"></path></g><g transform="translate(-98,-114) scale(1,1)"><g><path fill="none" stroke="none"></path><text fill="#000000" stroke="none" font-family="Arial" font-size="13px" font-style="normal" font-weight="bold" text-decoration="none" x="1006.5" y="695.5">Word</text></g></g><g transform="translate(-98,-114) scale(1,1)"><g><path fill="none" stroke="none"></path><text fill="#000000" stroke="none" font-family="Arial" font-size="13px" font-style="normal" font-weight="normal" text-decoration="none" x="741" y="718.5">-reading: string</text></g></g><g transform="translate(-98,-114) scale(1,1)"><g><path fill="none" stroke="none"></path><text fill="#000000" stroke="none" font-family="Arial" font-size="13px" font-style="normal" font-weight="normal" text-decoration="none" x="741" y="733.5">-studiedTimes: int</text></g></g><g transform="translate(-98,-114) scale(1,1)"><g><path fill="none" stroke="none"></path><text fill="#000000" stroke="none" font-family="Arial" font-size="13px" font-style="normal" font-weight="normal" text-decoration="none" x="741" y="756.5">+Word(writing: list of PositionInWord, kanas: string, meanings: list of string, studiedTimes: int)</text></g></g><g transform="translate(-98,-114) scale(1,1)"><g><path fill="none" stroke="none"></path><text fill="#000000" stroke="none" font-family="Arial" font-size="13px" font-style="normal" font-weight="normal" text-decoration="none" x="741" y="771.5">+Word(writing: list of PositionInWord, kanas: string, meanings: list of string)</text></g></g><g transform="translate(-98,-114) scale(1,1)"><g><path fill="none" stroke="none"></path><text fill="#000000" stroke="none" font-family="Arial" font-size="13px" font-style="normal" font-weight="normal" text-decoration="none" x="741" y="786.5">+study(): void</text></g></g><g transform="translate(-98,-114) scale(1,1)"><g><path fill="none" stroke="none"></path><text fill="#000000" stroke="none" font-family="Arial" font-size="13px" font-style="normal" font-weight="normal" text-decoration="none" x="741" y="801.5">+isRelatedTo(kanji: Kanji): boolean</text></g></g><g transform="translate(-98,-114) scale(1,1)"><g><path fill="none" stroke="none"></path><text fill="#000000" stroke="none" font-family="Arial" font-size="13px" font-style="normal" font-weight="normal" text-decoration="none" x="741" y="816.5">+getCharacter(position: int): Character</text></g></g><g transform="translate(-98,-114) scale(1,1)"><g><path fill="none" stroke="none"></path><text fill="#000000" stroke="none" font-family="Arial" font-size="13px" font-style="normal" font-weight="normal" text-decoration="none" x="741" y="831.5">+isWritten(writing: string): boolean</text></g></g><g transform="translate(-98,-114) scale(1,1)"><rect fill="#C0C0C0" stroke="none" x="143" y="487" width="356" height="100" opacity="0.2"></rect></g><g transform="translate(-98,-114) scale(1,1)"><rect fill="#ffffff" stroke="none" x="136" y="480" width="356" height="100"></rect></g><g transform="translate(-98,-114) scale(1,1)"><path fill="none" stroke="#000000" d="M 136 480 L 492 480 L 492 580 L 136 580 L 136 480 Z Z" stroke-miterlimit="10"></path></g><g transform="translate(-98,-114) scale(1,1)"><path fill="none" stroke="#000000" d="M 136 505 L 492 505" stroke-miterlimit="10"></path></g><g transform="translate(-98,-114) scale(1,1)"><path fill="none" stroke="#000000" d="M 136 528 L 492 528" stroke-miterlimit="10"></path></g><g transform="translate(-98,-114) scale(1,1)"><g><path fill="none" stroke="none"></path><text fill="#000000" stroke="none" font-family="Arial" font-size="13px" font-style="normal" font-weight="bold" text-decoration="none" x="299.5" y="499.5">Kanji</text></g></g><g transform="translate(-98,-114) scale(1,1)"><g><path fill="none" stroke="none"></path><text fill="#000000" stroke="none" font-family="Arial" font-size="13px" font-style="normal" font-weight="normal" text-decoration="none" x="141" y="522.5">-strokes: int</text></g></g><g transform="translate(-98,-114) scale(1,1)"><g><path fill="none" stroke="none"></path><text fill="#000000" stroke="none" font-family="Arial" font-size="13px" font-style="normal" font-weight="normal" text-decoration="none" x="141" y="545.5">+Kanji(character: string, meanings: list of string, stokes: int)</text></g></g><g transform="translate(-98,-114) scale(1,1)"><g><path fill="none" stroke="none"></path><text fill="#000000" stroke="none" font-family="Arial" font-size="13px" font-style="normal" font-weight="normal" text-decoration="none" x="141" y="560.5">+getCharacter(): string</text></g></g><g transform="translate(-98,-114) scale(1,1)"><g><path fill="none" stroke="none"></path><text fill="#000000" stroke="none" font-family="Arial" font-size="13px" font-style="normal" font-weight="normal" text-decoration="none" x="141" y="575.5">+isEqual(other: Kanji): boolean</text></g></g><g transform="translate(-98,-114) scale(1,1)"><rect fill="#C0C0C0" stroke="none" x="855" y="227" width="343" height="148" opacity="0.2"></rect></g><g transform="translate(-98,-114) scale(1,1)"><rect fill="#ffffff" stroke="none" x="848" y="220" width="343" height="148"></rect></g><g transform="translate(-98,-114) scale(1,1)"><path fill="none" stroke="#000000" d="M 848 220 L 1191 220 L 1191 368 L 848 368 L 848 220 Z Z" stroke-miterlimit="10"></path></g><g transform="translate(-98,-114) scale(1,1)"><path fill="none" stroke="#000000" d="M 848 245 L 1191 245" stroke-miterlimit="10"></path></g><g transform="translate(-98,-114) scale(1,1)"><path fill="none" stroke="#000000" d="M 848 255 L 1191 255" stroke-miterlimit="10"></path></g><g transform="translate(-98,-114) scale(1,1)"><g><path fill="none" stroke="none"></path><text fill="#000000" stroke="none" font-family="Arial" font-size="13px" font-style="normal" font-weight="bold" text-decoration="none" x="975.5" y="239.5">WordsManager</text></g></g><g transform="translate(-98,-114) scale(1,1)"><g><path fill="none" stroke="none"></path><text fill="#000000" stroke="none" font-family="Arial" font-size="13px" font-style="normal" font-weight="normal" text-decoration="none" x="853" y="272.5">+loadWords(): void</text></g></g><g transform="translate(-98,-114) scale(1,1)"><g><path fill="none" stroke="none"></path><text fill="#000000" stroke="none" font-family="Arial" font-size="13px" font-style="normal" font-weight="normal" text-decoration="none" x="853" y="287.5">+addWordToTable(word : Word): void</text></g></g><g transform="translate(-98,-114) scale(1,1)"><g><path fill="none" stroke="none"></path><text fill="#000000" stroke="none" font-family="Arial" font-size="13px" font-style="normal" font-weight="normal" text-decoration="none" x="853" y="302.5">+updateWordInTable(word : Word): void</text></g></g><g transform="translate(-98,-114) scale(1,1)"><g><path fill="none" stroke="none"></path><text fill="#000000" stroke="none" font-family="Arial" font-size="13px" font-style="normal" font-weight="normal" text-decoration="none" x="853" y="317.5">+removeWordFromTable(word : Word): void</text></g></g><g transform="translate(-98,-114) scale(1,1)"><g><path fill="none" stroke="none"></path><text fill="#000000" stroke="none" font-family="Arial" font-size="13px" font-style="normal" font-weight="normal" text-decoration="none" x="853" y="332.5">+searchByKanjis(kanjis: list of Kanji): list of Word</text></g></g><g transform="translate(-98,-114) scale(1,1)"><g><path fill="none" stroke="none"></path><text fill="#000000" stroke="none" font-family="Arial" font-size="13px" font-style="normal" font-weight="normal" text-decoration="none" x="853" y="347.5">+searchByWriting(writing: string): list of Word</text></g></g><g transform="translate(-98,-114) scale(1,1)"><g><path fill="none" stroke="none"></path><text fill="#000000" stroke="none" font-family="Arial" font-size="13px" font-style="normal" font-weight="normal" text-decoration="none" x="853" y="362.5">+searchByMeanings(meanings: list of string): list of Word</text></g></g><g transform="translate(-98,-114) scale(1,1)"><rect fill="#C0C0C0" stroke="none" x="151" y="271" width="339" height="120" opacity="0.2"></rect></g><g transform="translate(-98,-114) scale(1,1)"><rect fill="#ffffff" stroke="none" x="144" y="264" width="339" height="120"></rect></g><g transform="translate(-98,-114) scale(1,1)"><path fill="none" stroke="#000000" d="M 144 264 L 483 264 L 483 384 L 144 384 L 144 264 Z Z" stroke-miterlimit="10"></path></g><g transform="translate(-98,-114) scale(1,1)"><path fill="none" stroke="#000000" d="M 144 289 L 483 289" stroke-miterlimit="10"></path></g><g transform="translate(-98,-114) scale(1,1)"><path fill="none" stroke="#000000" d="M 144 299 L 483 299" stroke-miterlimit="10"></path></g><g transform="translate(-98,-114) scale(1,1)"><g><path fill="none" stroke="none"></path><text fill="#000000" stroke="none" font-family="Arial" font-size="13px" font-style="normal" font-weight="bold" text-decoration="none" x="270.5" y="283.5">KanjisManager</text></g></g><g transform="translate(-98,-114) scale(1,1)"><g><path fill="none" stroke="none"></path><text fill="#000000" stroke="none" font-family="Arial" font-size="13px" font-style="normal" font-weight="normal" text-decoration="none" x="149" y="316.5">+loadKanjis(): void</text></g></g><g transform="translate(-98,-114) scale(1,1)"><g><path fill="none" stroke="none"></path><text fill="#000000" stroke="none" font-family="Arial" font-size="13px" font-style="normal" font-weight="normal" text-decoration="none" x="149" y="331.5">+addToTable(kanji: Kanji): void</text></g></g><g transform="translate(-98,-114) scale(1,1)"><g><path fill="none" stroke="none"></path><text fill="#000000" stroke="none" font-family="Arial" font-size="13px" font-style="normal" font-weight="normal" text-decoration="none" x="149" y="346.5">+removeFromTable(kanji: Kanji): void</text></g></g><g transform="translate(-98,-114) scale(1,1)"><g><path fill="none" stroke="none"></path><text fill="#000000" stroke="none" font-family="Arial" font-size="13px" font-style="normal" font-weight="normal" text-decoration="none" x="149" y="361.5">+searchByCharacter(character: string): Kanji</text></g></g><g transform="translate(-98,-114) scale(1,1)"><g><path fill="none" stroke="none"></path><text fill="#000000" stroke="none" font-family="Arial" font-size="13px" font-style="normal" font-weight="normal" text-decoration="none" x="149" y="376.5">+searchByMeanings(meanings: list of string): list of Kanji</text></g></g><g transform="translate(-98,-114) scale(1,1)"><path fill="none" stroke="#000000" d="M 1020 368 L 1020 676" stroke-miterlimit="10"></path></g><g transform="translate(-98,-114) scale(1,1)"><path fill="none" stroke="#000000" d="M 1015.790482243984 665.8373251423759 L 1020 676 L 1024.2095177560159 665.8373251423759" stroke-miterlimit="10"></path></g><g transform="translate(-98,-114) scale(1,1)"><g><path fill="none" stroke="none"></path><text fill="#000000" stroke="none" font-family="Arial" font-size="13px" font-style="normal" font-weight="normal" text-decoration="none" x="1033" y="665">-words</text></g></g><g transform="translate(-98,-114) scale(1,1)"><g><path fill="none" stroke="none"></path><text fill="#000000" stroke="none" font-family="Arial" font-size="13px" font-style="normal" font-weight="normal" text-decoration="none" x="985" y="670">0..*</text></g></g><g transform="translate(-98,-114) scale(1,1)"><path fill="none" stroke="#000000" d="M 313 384 L 313 480" stroke-miterlimit="10"></path></g><g transform="translate(-98,-114) scale(1,1)"><path fill="none" stroke="#000000" d="M 308.790482243984 469.83732514237585 L 313 480 L 317.209517756016 469.83732514237585" stroke-miterlimit="10"></path></g><g transform="translate(-98,-114) scale(1,1)"><g><path fill="none" stroke="none"></path><text fill="#000000" stroke="none" font-family="Arial" font-size="13px" font-style="normal" font-weight="normal" text-decoration="none" x="323" y="466">-kanjis</text></g></g><g transform="translate(-98,-114) scale(1,1)"><g><path fill="none" stroke="none"></path><text fill="#000000" stroke="none" font-family="Arial" font-size="13px" font-style="normal" font-weight="normal" text-decoration="none" x="279" y="468">0..*</text></g></g><g transform="translate(-98,-114) scale(1,1)"><path fill="#ffffff" stroke="none" d="M 1352 1232 L 1533 1232 L 1543 1242 L 1543 1327 L 1352 1327 L 1352 1232"></path></g><g transform="translate(-98,-114) scale(1,1)"><path fill="none" stroke="#000000" d="M 1352 1232 L 1533 1232 L 1543 1242 L 1543 1327 L 1352 1327 L 1352 1232 L 1352 1232" stroke-miterlimit="10"></path></g><g transform="translate(-98,-114) scale(1,1)"><path fill="none" stroke="#000000" d="M 1533 1232 L 1533 1242 L 1543 1242 L 1533 1232" stroke-miterlimit="10"></path></g><g transform="translate(-98,-114) scale(1,1)"><g><path fill="none" stroke="none"></path><text fill="#000000" stroke="none" font-family="Arial" font-size="13px" font-style="normal" font-weight="normal" text-decoration="none" x="1357" y="1250">Project JPBD</text></g></g><g transform="translate(-98,-114) scale(1,1)"><g><path fill="none" stroke="none"></path><text fill="#000000" stroke="none" font-family="Arial" font-size="13px" font-style="normal" font-weight="normal" text-decoration="none" x="1357" y="1265">Author : Armand FOUCAULT</text></g></g><g transform="translate(-98,-114) scale(1,1)"><g><path fill="none" stroke="none"></path><text fill="#000000" stroke="none" font-family="Arial" font-size="13px" font-style="normal" font-weight="normal" text-decoration="none" x="1357" y="1280">Diagram version 3.4</text></g></g><g transform="translate(-98,-114) scale(1,1)"><g><path fill="none" stroke="none"></path><text fill="#000000" stroke="none" font-family="Arial" font-size="13px" font-style="normal" font-weight="normal" text-decoration="none" x="1357" y="1295">June 11, 2015</text></g></g><g transform="translate(-98,-114) scale(1,1)"><rect fill="#C0C0C0" stroke="none" x="175" y="691" width="292" height="115" opacity="0.2"></rect></g><g transform="translate(-98,-114) scale(1,1)"><rect fill="#ffffff" stroke="none" x="168" y="684" width="292" height="115"></rect></g><g transform="translate(-98,-114) scale(1,1)"><path fill="none" stroke="#000000" d="M 168 684 L 460 684 L 460 799 L 168 799 L 168 684 Z Z" stroke-miterlimit="10"></path></g><g transform="translate(-98,-114) scale(1,1)"><path fill="none" stroke="#000000" d="M 168 709 L 460 709" stroke-miterlimit="10"></path></g><g transform="translate(-98,-114) scale(1,1)"><path fill="none" stroke="#000000" d="M 168 732 L 460 732" stroke-miterlimit="10"></path></g><g transform="translate(-98,-114) scale(1,1)"><g><path fill="none" stroke="none"></path><text fill="#000000" stroke="none" font-family="Arial" font-size="13px" font-style="normal" font-weight="bold" text-decoration="none" x="286" y="703.5">Character</text></g></g><g transform="translate(-98,-114) scale(1,1)"><g><path fill="none" stroke="none"></path><text fill="#000000" stroke="none" font-family="Arial" font-size="13px" font-style="normal" font-weight="normal" text-decoration="none" x="173" y="726.5">-character: string</text></g></g><g transform="translate(-98,-114) scale(1,1)"><g><path fill="none" stroke="none"></path><text fill="#000000" stroke="none" font-family="Arial" font-size="13px" font-style="normal" font-weight="normal" text-decoration="none" x="173" y="749.5">+Character()</text></g></g><g transform="translate(-98,-114) scale(1,1)"><g><path fill="none" stroke="none"></path><text fill="#000000" stroke="none" font-family="Arial" font-size="13px" font-style="normal" font-weight="normal" text-decoration="none" x="173" y="764.5">+Character(char: string, meanings: list of strings)</text></g></g><g transform="translate(-98,-114) scale(1,1)"><g><path fill="none" stroke="none"></path><text fill="#000000" stroke="none" font-family="Arial" font-size="13px" font-style="normal" font-weight="normal" text-decoration="none" x="173" y="779.5">+getChar(): string</text></g></g><g transform="translate(-98,-114) scale(1,1)"><g><path fill="none" stroke="none"></path><text fill="#000000" stroke="none" font-family="Arial" font-size="13px" font-style="normal" font-weight="normal" text-decoration="none" x="173" y="794.5">+isEqual(other: CHaracter): boolean</text></g></g><g transform="translate(-98,-114) scale(1,1)"><path fill="none" stroke="#000000" d="M 314 580 L 314 684" stroke-miterlimit="10"></path></g><g transform="translate(-98,-114) scale(1,1)"><path fill="#FFFFFF" stroke="none" d="M 305.580964487968 663.6746502847517 L 314 684 L 322.419035512032 663.6746502847517"></path></g><g transform="translate(-98,-114) scale(1,1)"><path fill="none" stroke="#000000" d="M 305.580964487968 663.6746502847517 L 314 684 L 322.419035512032 663.6746502847517 L 305.580964487968 663.6746502847517" stroke-miterlimit="10"></path></g><g transform="translate(-98,-114) scale(1,1)"><path fill="none" stroke="#000000" d="M 492 536 L 872 536 L 872 676" stroke-miterlimit="10"></path></g><g transform="translate(-98,-114) scale(1,1)"><path fill="none" stroke="#000000" d="M 867.790482243984 665.8373251423759 L 872 676 L 876.209517756016 665.8373251423759" stroke-miterlimit="10"></path></g><g transform="translate(-98,-114) scale(1,1)"><g><path fill="none" stroke="none"></path><text fill="#000000" stroke="none" font-family="Arial" font-size="13px" font-style="normal" font-weight="normal" text-decoration="none" x="779" y="661">-relatedWords</text></g></g><g transform="translate(-98,-114) scale(1,1)"><g><path fill="none" stroke="none"></path><text fill="#000000" stroke="none" font-family="Arial" font-size="13px" font-style="normal" font-weight="normal" text-decoration="none" x="883" y="661">0..*</text></g></g><g transform="translate(-98,-114) scale(1,1)"><rect fill="#C0C0C0" stroke="none" x="619" y="131" width="49" height="44" opacity="0.2"></rect></g><g transform="translate(-98,-114) scale(1,1)"><rect fill="#ffffff" stroke="none" x="612" y="124" width="49" height="44"></rect></g><g transform="translate(-98,-114) scale(1,1)"><path fill="none" stroke="#000000" d="M 612 124 L 661 124 L 661 168 L 612 168 L 612 124 Z Z" stroke-miterlimit="10"></path></g><g transform="translate(-98,-114) scale(1,1)"><path fill="none" stroke="#000000" d="M 612 149 L 661 149" stroke-miterlimit="10"></path></g><g transform="translate(-98,-114) scale(1,1)"><path fill="none" stroke="#000000" d="M 612 159 L 661 159" stroke-miterlimit="10"></path></g><g transform="translate(-98,-114) scale(1,1)"><g><path fill="none" stroke="none"></path><text fill="#000000" stroke="none" font-family="Arial" font-size="13px" font-style="normal" font-weight="bold" text-decoration="none" x="620" y="143.5">JPDB</text></g></g><g transform="translate(-98,-114) scale(1,1)"><path fill="none" stroke="#000000" d="M 312 264 L 312 146 L 612 146" stroke-miterlimit="10"></path></g><g transform="translate(-98,-114) scale(1,1)"><path fill="#000000" stroke="none" d="M 601.8373251423759 150.209517756016 L 612 146 L 601.8373251423758 141.790482243984 L 590 146"></path></g><g transform="translate(-98,-114) scale(1,1)"><path fill="none" stroke="#000000" d="M 601.8373251423759 150.209517756016 L 612 146 L 601.8373251423758 141.790482243984 L 590 146 L 601.8373251423759 150.209517756016" stroke-miterlimit="10"></path></g><g transform="translate(-98,-114) scale(1,1)"><g><path fill="none" stroke="none"></path><text fill="#000000" stroke="none" font-family="Arial" font-size="13px" font-style="normal" font-weight="normal" text-decoration="none" x="318" y="248">-kanjisManager</text></g></g><g transform="translate(-98,-114) scale(1,1)"><g><path fill="none" stroke="none"></path><text fill="#000000" stroke="none" font-family="Arial" font-size="13px" font-style="normal" font-weight="normal" text-decoration="none" x="283" y="250">0..1</text></g></g><g transform="translate(-98,-114) scale(1,1)"><path fill="none" stroke="#000000" d="M 1012 220 L 1012 148 L 661 148" stroke-miterlimit="10"></path></g><g transform="translate(-98,-114) scale(1,1)"><path fill="#000000" stroke="none" d="M 671.1626748576241 143.790482243984 L 661 148 L 671.1626748576241 152.209517756016 L 683 148"></path></g><g transform="translate(-98,-114) scale(1,1)"><path fill="none" stroke="#000000" d="M 671.1626748576241 143.790482243984 L 661 148 L 671.1626748576241 152.209517756016 L 683 148 L 671.1626748576241 143.790482243984" stroke-miterlimit="10"></path></g><g transform="translate(-98,-114) scale(1,1)"><g><path fill="none" stroke="none"></path><text fill="#000000" stroke="none" font-family="Arial" font-size="13px" font-style="normal" font-weight="normal" text-decoration="none" x="903" y="208">-wordsManager</text></g></g><g transform="translate(-98,-114) scale(1,1)"><g><path fill="none" stroke="none"></path><text fill="#000000" stroke="none" font-family="Arial" font-size="13px" font-style="normal" font-weight="normal" text-decoration="none" x="1035" y="207">0..1</text></g></g><g transform="translate(-98,-114) scale(1,1)"><path fill="none" stroke="#000000" d="M 136 532 L 108 532 L 108 744 L 168 744" stroke-miterlimit="10"></path></g><g transform="translate(-98,-114) scale(1,1)"><path fill="none" stroke="#000000" d="M 157.83732514237585 748.209517756016 L 168 744 L 157.83732514237585 739.790482243984" stroke-miterlimit="10"></path></g><g transform="translate(-98,-114) scale(1,1)"><g><path fill="none" stroke="none"></path><text fill="#000000" stroke="none" font-family="Arial" font-size="13px" font-style="normal" font-weight="normal" text-decoration="none" x="130" y="736">-key</text></g></g><g transform="translate(-98,-114) scale(1,1)"><g><path fill="none" stroke="none"></path><text fill="#000000" stroke="none" font-family="Arial" font-size="13px" font-style="normal" font-weight="normal" text-decoration="none" x="135" y="763">1..1</text></g></g><g transform="translate(-98,-114) scale(1,1)"><path fill="none" stroke="#000000" d="M 460 728 L 736 728" stroke-miterlimit="10"></path></g><g transform="translate(-98,-114) scale(1,1)"><g><path fill="none" stroke="none"></path><text fill="#000000" stroke="none" font-family="Arial" font-size="13px" font-style="normal" font-weight="normal" text-decoration="none" x="484" y="717">-writing</text></g></g><g transform="translate(-98,-114) scale(1,1)"><g><path fill="none" stroke="none"></path><text fill="#000000" stroke="none" font-family="Arial" font-size="13px" font-style="normal" font-weight="normal" text-decoration="none" x="492" y="748">1..*</text></g></g><g transform="translate(-98,-114) scale(1,1)"><rect fill="#C0C0C0" stroke="none" x="463" y="899" width="302" height="100" opacity="0.2"></rect></g><g transform="translate(-98,-114) scale(1,1)"><rect fill="#ffffff" stroke="none" x="456" y="892" width="302" height="100"></rect></g><g transform="translate(-98,-114) scale(1,1)"><path fill="none" stroke="#000000" d="M 456 892 L 758 892 L 758 992 L 456 992 L 456 892 Z Z" stroke-miterlimit="10"></path></g><g transform="translate(-98,-114) scale(1,1)"><path fill="none" stroke="#000000" d="M 456 917 L 758 917" stroke-miterlimit="10"></path></g><g transform="translate(-98,-114) scale(1,1)"><path fill="none" stroke="#000000" d="M 456 940 L 758 940" stroke-miterlimit="10"></path></g><g transform="translate(-98,-114) scale(1,1)"><g><path fill="none" stroke="none"></path><text fill="#000000" stroke="none" font-family="Arial" font-size="13px" font-style="normal" font-weight="bold" text-decoration="none" x="563" y="911.5">PositionInWord</text></g></g><g transform="translate(-98,-114) scale(1,1)"><g><path fill="none" stroke="none"></path><text fill="#000000" stroke="none" font-family="Arial" font-size="13px" font-style="normal" font-weight="normal" text-decoration="none" x="461" y="934.5">-position: int</text></g></g><g transform="translate(-98,-114) scale(1,1)"><g><path fill="none" stroke="none"></path><text fill="#000000" stroke="none" font-family="Arial" font-size="13px" font-style="normal" font-weight="normal" text-decoration="none" x="461" y="957.5">+PositionInWord(character: Character, position int)</text></g></g><g transform="translate(-98,-114) scale(1,1)"><g><path fill="none" stroke="none"></path><text fill="#000000" stroke="none" font-family="Arial" font-size="13px" font-style="normal" font-weight="normal" text-decoration="none" x="461" y="972.5">+getCharacter(): Character</text></g></g><g transform="translate(-98,-114) scale(1,1)"><g><path fill="none" stroke="none"></path><text fill="#000000" stroke="none" font-family="Arial" font-size="13px" font-style="normal" font-weight="normal" text-decoration="none" x="461" y="987.5">+getPosition(): int</text></g></g><g transform="translate(-98,-114) scale(1,1)"><path fill="none" stroke="#000000" d="M 604 891 L 604 729 L 599 729" stroke-miterlimit="10" stroke-dasharray="3"></path></g><g transform="translate(-98,-114) scale(1,1)"><rect fill="#C0C0C0" stroke="none" x="1175" y="967" width="279" height="100" opacity="0.2"></rect></g><g transform="translate(-98,-114) scale(1,1)"><rect fill="#ffffff" stroke="none" x="1168" y="960" width="279" height="100"></rect></g><g transform="translate(-98,-114) scale(1,1)"><path fill="none" stroke="#000000" d="M 1168 960 L 1447 960 L 1447 1060 L 1168 1060 L 1168 960 Z Z" stroke-miterlimit="10"></path></g><g transform="translate(-98,-114) scale(1,1)"><path fill="none" stroke="#000000" d="M 1168 985 L 1447 985" stroke-miterlimit="10"></path></g><g transform="translate(-98,-114) scale(1,1)"><path fill="none" stroke="#000000" d="M 1168 1008 L 1447 1008" stroke-miterlimit="10"></path></g><g transform="translate(-98,-114) scale(1,1)"><g><path fill="none" stroke="none"></path><text fill="#000000" stroke="none" font-family="Arial" font-size="13px" font-style="normal" font-weight="bold" text-decoration="none" x="1270.5" y="979.5">PracticePool</text></g></g><g transform="translate(-98,-114) scale(1,1)"><g><path fill="none" stroke="none"></path><text fill="#000000" stroke="none" font-family="Arial" font-size="13px" font-style="normal" font-weight="normal" text-decoration="none" x="1173" y="1002.5">-creationDate: Calendar</text></g></g><g transform="translate(-98,-114) scale(1,1)"><g><path fill="none" stroke="none"></path><text fill="#000000" stroke="none" font-family="Arial" font-size="13px" font-style="normal" font-weight="normal" text-decoration="none" x="1173" y="1025.5">+PracticePool()</text></g></g><g transform="translate(-98,-114) scale(1,1)"><g><path fill="none" stroke="none"></path><text fill="#000000" stroke="none" font-family="Arial" font-size="13px" font-style="normal" font-weight="normal" text-decoration="none" x="1173" y="1040.5">+add(element: PoolElement): void</text></g></g><g transform="translate(-98,-114) scale(1,1)"><g><path fill="none" stroke="none"></path><text fill="#000000" stroke="none" font-family="Arial" font-size="13px" font-style="normal" font-weight="normal" text-decoration="none" x="1173" y="1055.5">+remove(element: PoolElement): void</text></g></g><g transform="translate(-98,-114) scale(1,1)"><rect fill="#C0C0C0" stroke="none" x="555" y="1111" width="231" height="115" opacity="0.2"></rect></g><g transform="translate(-98,-114) scale(1,1)"><rect fill="#ffffff" stroke="none" x="548" y="1104" width="231" height="115"></rect></g><g transform="translate(-98,-114) scale(1,1)"><path fill="none" stroke="#000000" d="M 548 1104 L 779 1104 L 779 1219 L 548 1219 L 548 1104 Z Z" stroke-miterlimit="10"></path></g><g transform="translate(-98,-114) scale(1,1)"><path fill="none" stroke="#000000" d="M 548 1129 L 779 1129" stroke-miterlimit="10"></path></g><g transform="translate(-98,-114) scale(1,1)"><path fill="none" stroke="#000000" d="M 548 1152 L 779 1152" stroke-miterlimit="10"></path></g><g transform="translate(-98,-114) scale(1,1)"><g><path fill="none" stroke="none"></path><text fill="#000000" stroke="none" font-family="Arial" font-size="13px" font-style="normal" font-weight="bold" text-decoration="none" x="626" y="1123.5">DataElement</text></g></g><g transform="translate(-98,-114) scale(1,1)"><g><path fill="none" stroke="none"></path><text fill="#000000" stroke="none" font-family="Arial" font-size="13px" font-style="normal" font-weight="normal" text-decoration="none" x="553" y="1146.5">-meanings: list of string</text></g></g><g transform="translate(-98,-114) scale(1,1)"><g><path fill="none" stroke="none"></path><text fill="#000000" stroke="none" font-family="Arial" font-size="13px" font-style="normal" font-weight="normal" text-decoration="none" x="553" y="1169.5">+DataElement()</text></g></g><g transform="translate(-98,-114) scale(1,1)"><g><path fill="none" stroke="none"></path><text fill="#000000" stroke="none" font-family="Arial" font-size="13px" font-style="normal" font-weight="normal" text-decoration="none" x="553" y="1184.5">+DataElement(meanings: list of string)</text></g></g><g transform="translate(-98,-114) scale(1,1)"><g><path fill="none" stroke="none"></path><text fill="#000000" stroke="none" font-family="Arial" font-size="13px" font-style="normal" font-weight="normal" text-decoration="none" x="553" y="1199.5">+addMeaning(meaning: string): void</text></g></g><g transform="translate(-98,-114) scale(1,1)"><g><path fill="none" stroke="none"></path><text fill="#000000" stroke="none" font-family="Arial" font-size="13px" font-style="normal" font-weight="normal" text-decoration="none" x="553" y="1214.5">+means(meaning: String): boolean</text></g></g><g transform="translate(-98,-114) scale(1,1)"><path fill="none" stroke="#000000" d="M 312 799 L 312 1032 L 664 1032 L 664 1104" stroke-miterlimit="10"></path></g><g transform="translate(-98,-114) scale(1,1)"><path fill="#FFFFFF" stroke="none" d="M 655.580964487968 1083.6746502847518 L 664 1104 L 672.419035512032 1083.6746502847518"></path></g><g transform="translate(-98,-114) scale(1,1)"><path fill="none" stroke="#000000" d="M 655.580964487968 1083.6746502847518 L 664 1104 L 672.419035512032 1083.6746502847518 L 655.580964487968 1083.6746502847518" stroke-miterlimit="10"></path></g><g transform="translate(-98,-114) scale(1,1)"><path fill="none" stroke="#000000" d="M 1024 836 L 1024 1032 L 664 1032 L 664 1104" stroke-miterlimit="10"></path></g><g transform="translate(-98,-114) scale(1,1)"><path fill="#FFFFFF" stroke="none" d="M 655.580964487968 1083.6746502847518 L 664 1104 L 672.419035512032 1083.6746502847518"></path></g><g transform="translate(-98,-114) scale(1,1)"><path fill="none" stroke="#000000" d="M 655.580964487968 1083.6746502847518 L 664 1104 L 672.419035512032 1083.6746502847518 L 655.580964487968 1083.6746502847518" stroke-miterlimit="10"></path></g><g transform="translate(-98,-114) scale(1,1)"><rect fill="#C0C0C0" stroke="none" x="931" y="1139" width="105" height="72" opacity="0.2"></rect></g><g transform="translate(-98,-114) scale(1,1)"><rect fill="#ffffff" stroke="none" x="924" y="1132" width="105" height="72"></rect></g><g transform="translate(-98,-114) scale(1,1)"><path fill="none" stroke="#000000" d="M 924 1132 L 1029 1132 L 1029 1204 L 924 1204 L 924 1132 Z Z" stroke-miterlimit="10"></path></g><g transform="translate(-98,-114) scale(1,1)"><path fill="none" stroke="#000000" d="M 924 1157 L 1029 1157" stroke-miterlimit="10"></path></g><g transform="translate(-98,-114) scale(1,1)"><path fill="none" stroke="#000000" d="M 924 1195 L 1029 1195" stroke-miterlimit="10"></path></g><g transform="translate(-98,-114) scale(1,1)"><g><path fill="none" stroke="none"></path><text fill="#000000" stroke="none" font-family="Arial" font-size="13px" font-style="normal" font-weight="bold" text-decoration="none" x="939.5" y="1151.5">PoolElement</text></g></g><g transform="translate(-98,-114) scale(1,1)"><g><path fill="none" stroke="none"></path><text fill="#000000" stroke="none" font-family="Arial" font-size="13px" font-style="normal" font-weight="normal" text-decoration="none" x="929" y="1174.5">-failsNumber: int</text></g></g><g transform="translate(-98,-114) scale(1,1)"><g><path fill="none" stroke="none"></path><text fill="#000000" stroke="none" font-family="Arial" font-size="13px" font-style="normal" font-weight="normal" text-decoration="none" x="929" y="1189.5">-triesNumber: int</text></g></g><g transform="translate(-98,-114) scale(1,1)"><path fill="none" stroke="#000000" d="M 924 1168 L 779 1168" stroke-miterlimit="10"></path></g><g transform="translate(-98,-114) scale(1,1)"><path fill="none" stroke="#000000" d="M 789.1626748576241 1163.7904822439841 L 779 1168 L 789.1626748576241 1172.2095177560159" stroke-miterlimit="10"></path></g><g transform="translate(-98,-114) scale(1,1)"><g><path fill="none" stroke="none"></path><text fill="#000000" stroke="none" font-family="Arial" font-size="13px" font-style="normal" font-weight="normal" text-decoration="none" x="806" y="1193">-dataElement</text></g></g><g transform="translate(-98,-114) scale(1,1)"><g><path fill="none" stroke="none"></path><text fill="#000000" stroke="none" font-family="Arial" font-size="13px" font-style="normal" font-weight="normal" text-decoration="none" x="825" y="1162">1..1</text></g></g><g transform="translate(-98,-114) scale(1,1)"><path fill="none" stroke="#000000" d="M 1312 1060 L 1312 1170 L 1029 1170" stroke-miterlimit="10"></path></g><g transform="translate(-98,-114) scale(1,1)"><path fill="none" stroke="#000000" d="M 1039.162674857624 1165.7904822439841 L 1029 1170 L 1039.162674857624 1174.2095177560159" stroke-miterlimit="10"></path></g><g transform="translate(-98,-114) scale(1,1)"><g><path fill="none" stroke="none"></path><text fill="#000000" stroke="none" font-family="Arial" font-size="13px" font-style="normal" font-weight="normal" text-decoration="none" x="1005" y="1228">-poolElements</text></g></g><g transform="translate(-98,-114) scale(1,1)"><g><path fill="none" stroke="none"></path><text fill="#000000" stroke="none" font-family="Arial" font-size="13px" font-style="normal" font-weight="normal" text-decoration="none" x="1040" y="1164">1..*</text></g></g></g></svg>